<?xml version="1.0" standalone="no"?>
<!DOCTYPE svg PUBLIC "-//W3C//DTD SVG 20010904//EN"
 "http://www.w3.org/TR/2001/REC-SVG-20010904/DTD/svg10.dtd">
<svg version="1.0" xmlns="http://www.w3.org/2000/svg"
 width="432.000000pt" height="432.000000pt" viewBox="0 0 432.000000 432.000000"
 preserveAspectRatio="xMidYMid meet">
<metadata>
Created by potrace 1.14, written by Peter Selinger 2001-2017
</metadata>
<g transform="translate(0.000000,432.000000) scale(0.100000,-0.100000)"
fill="#000000" stroke="none">
<path d="M2036 4004 c-87 -176 -199 -402 -249 -504 l-92 -185 -50 -7 c-27 -4
-70 -10 -95 -13 -25 -4 -54 -8 -65 -10 -11 -2 -40 -6 -65 -9 -44 -6 -111 -16
-140 -21 -8 -1 -40 -6 -70 -10 -30 -4 -62 -9 -70 -10 -8 -1 -40 -6 -70 -10
-30 -4 -63 -9 -73 -11 -19 -3 -130 -19 -207 -29 -25 -4 -56 -8 -70 -11 -14 -2
-45 -7 -70 -10 -24 -3 -47 -7 -51 -10 -7 -4 304 -316 322 -322 16 -6 10 -48
-56 -381 -35 -179 -66 -338 -69 -353 -4 -24 -12 -64 -40 -203 -6 -28 -64 -325
-70 -355 -3 -14 -10 -50 -16 -80 -6 -30 -13 -66 -15 -80 -3 -14 -7 -34 -9 -45
-11 -56 -76 -384 -81 -412 -3 -18 -15 -79 -26 -135 -11 -57 -23 -114 -25 -128
-3 -14 -11 -56 -19 -95 -8 -38 -16 -81 -18 -95 -12 -65 -20 -107 -24 -125 -19
-92 -55 -277 -59 -307 -5 -30 -2 -38 9 -38 9 0 17 3 19 8 2 4 23 20 48 37 24
17 157 109 295 205 138 96 271 189 295 205 25 17 51 35 60 42 8 7 89 64 180
127 91 63 253 176 360 251 107 75 271 190 365 255 l169 118 33 -22 c58 -38
382 -261 593 -407 36 -25 101 -70 145 -100 44 -30 125 -86 180 -124 82 -57
183 -126 285 -195 116 -79 277 -191 285 -197 61 -50 295 -200 295 -190 0 7 -9
56 -20 108 -11 52 -22 103 -25 114 -4 19 -29 143 -39 195 -3 14 -17 79 -30
145 -29 138 -103 498 -110 535 -3 14 -10 48 -15 75 -6 28 -16 75 -22 105 -5
30 -17 89 -25 130 -9 41 -18 89 -21 105 -3 17 -23 120 -45 230 -22 110 -41
214 -44 230 -2 17 -15 84 -29 150 -13 66 -27 134 -29 150 -3 17 -14 75 -25
130 -11 55 -22 111 -25 125 -3 14 -10 50 -16 80 -6 30 -13 69 -16 85 -3 17 -9
48 -13 70 l-7 40 170 167 c94 91 169 168 166 171 -3 3 -29 8 -59 12 -30 4 -61
8 -70 10 -9 2 -44 7 -76 11 -33 4 -62 8 -65 9 -9 2 -113 17 -205 30 -22 3
-101 14 -175 25 -74 12 -148 23 -165 25 -16 2 -52 7 -80 11 -27 3 -59 8 -70
10 -11 3 -45 7 -76 10 -53 6 -56 9 -77 48 -12 22 -124 250 -250 505 l-229 464
-157 -319z"/>
</g>
</svg>
