<?xml version="1.0" encoding="utf-8"?>
<!-- Generator: Adobe Illustrator 24.0.2, SVG Export Plug-In . SVG Version: 6.00 Build 0)  -->
<svg version="1.1" id="Layer_1" xmlns="http://www.w3.org/2000/svg" xmlns:xlink="http://www.w3.org/1999/xlink" x="0px" y="0px"
	 viewBox="0 0 512 512" style="enable-background:new 0 0 512 512;" xml:space="preserve">
<style type="text/css">
	.st0{fill:#ACC7E9;}
	.st1{fill:#FAFAFA;}
	.st2{fill:#151B31;}
	.st3{fill:#CC9A03;}
</style>
<g>
	<ellipse class="st0" cx="256" cy="421.01" rx="255" ry="12.75"/>
	<g>
		<path class="st1" d="M183.84,165.58l217.63,6.65c0,0,62.15-6.65,55.58,66.45s-12.38,140.38-12.38,140.38s0.83,44.02-52.33,44.02
			s-202.67-7.48-202.67-7.48L183.84,165.58z"/>
		<path class="st2" d="M183.74,165.48l54.12,1.18l54.41,1.28l27.28,0.69l27.31,0.73c18.21,0.51,36.43,1.01,54.65,1.6l-0.17,0.01
			c0.69-0.07,1.32-0.1,1.97-0.12c0.65-0.02,1.29-0.04,1.94-0.04c1.29,0,2.58,0.04,3.86,0.11c2.57,0.16,5.12,0.47,7.66,0.93
			c5.06,0.93,10.03,2.46,14.68,4.74c4.65,2.26,8.93,5.31,12.55,9.02c3.62,3.7,6.55,8.06,8.7,12.73c2.16,4.68,3.6,9.65,4.46,14.68
			c0.89,5.04,1.2,10.14,1.18,15.22c0.01,0.64-0.02,1.27-0.03,1.91l-0.05,1.9c-0.08,1.27-0.13,2.54-0.23,3.8
			c-0.2,2.54-0.45,5.04-0.68,7.55l-1.42,15.07l-2.79,30.15l-2.69,30.15c-1.76,20.11-3.5,40.21-5.17,60.33l0-0.06
			c0.01,0.77-0.03,1.5-0.08,2.24c-0.05,0.74-0.13,1.47-0.21,2.2c-0.17,1.47-0.44,2.92-0.74,4.36c-0.63,2.88-1.51,5.71-2.65,8.44
			c-1.14,2.73-2.54,5.35-4.21,7.8l-0.64,0.91c-0.22,0.3-0.42,0.61-0.66,0.9l-1.39,1.74l-1.5,1.65l-0.38,0.41l-0.4,0.39l-0.8,0.77
			l-0.8,0.77l-0.85,0.71l-0.86,0.71c-0.29,0.24-0.56,0.48-0.87,0.69l-1.81,1.3c-0.3,0.23-0.61,0.42-0.93,0.61l-0.95,0.58l-0.95,0.58
			c-0.16,0.1-0.32,0.19-0.48,0.27l-0.49,0.26l-1.97,1.03c-0.67,0.32-1.36,0.6-2.03,0.9c-0.68,0.29-1.35,0.61-2.06,0.84
			c-5.56,2.07-11.41,3.21-17.28,3.7c-0.73,0.06-1.47,0.14-2.2,0.18l-2.21,0.07l-2.21,0.07c-0.73,0.02-1.46,0-2.19,0.01l-8.75-0.02
			l-8.74-0.11l-4.37-0.06l-4.37-0.09l-8.74-0.19l-8.74-0.23l-8.74-0.24l-8.73-0.28c-23.29-0.75-46.57-1.63-69.85-2.59
			c-23.28-0.95-46.55-2.04-69.83-3.18l-1.42-0.07l-0.03-1.42l-1.3-62.78l-1.13-62.69l-1.01-62.49L183.74,165.48z M183.94,165.68
			l1.96,62.82l1.89,62.52l1.77,62.32l1.61,62.23l-1.45-1.49c23.26,1.15,46.53,2.22,69.8,3.29c23.27,1.05,46.54,2.07,69.82,2.93
			l8.73,0.32l8.73,0.3l8.73,0.29l8.73,0.25l4.36,0.13l4.36,0.1l8.73,0.2l8.72,0.11c0.73,0.01,1.46,0.03,2.18,0.02l2.16-0.04
			l2.16-0.04c0.72-0.04,1.43-0.1,2.15-0.15c5.73-0.41,11.43-1.45,16.82-3.38c0.69-0.21,1.33-0.51,2-0.78
			c0.66-0.28,1.33-0.54,1.97-0.84l1.91-0.96l0.48-0.24c0.16-0.08,0.32-0.16,0.47-0.26l0.92-0.55l0.92-0.55
			c0.31-0.18,0.62-0.36,0.9-0.57l1.76-1.23c0.3-0.2,0.57-0.43,0.85-0.65l0.83-0.67l0.83-0.68l0.78-0.73l0.78-0.73l0.39-0.37
			l0.37-0.39l1.46-1.57l1.36-1.66c0.23-0.27,0.43-0.57,0.64-0.86l0.63-0.87c1.63-2.35,3.03-4.87,4.16-7.5
			c1.14-2.63,2.02-5.38,2.66-8.18c0.3-1.4,0.58-2.82,0.76-4.24c0.09-0.71,0.17-1.43,0.23-2.14c0.06-0.71,0.1-1.44,0.1-2.13v-0.04
			l0-0.02c1.88-20.1,3.69-40.2,5.47-60.3l2.63-30.16l2.53-30.17l1.24-15.09c0.21-2.51,0.42-5.03,0.58-7.53
			c0.08-1.25,0.11-2.5,0.17-3.76l0.03-1.88c0.01-0.63,0.02-1.25,0.01-1.88c-0.05-5-0.43-10.01-1.37-14.9
			c-0.91-4.89-2.38-9.68-4.52-14.14c-2.13-4.46-4.96-8.57-8.44-12.04c-1.74-1.74-3.63-3.32-5.64-4.73
			c-2.01-1.42-4.15-2.64-6.37-3.71c-4.44-2.14-9.21-3.57-14.08-4.43c-2.44-0.43-4.9-0.7-7.37-0.85c-1.23-0.07-2.47-0.11-3.7-0.1
			c-0.62,0-1.23,0.02-1.85,0.04c-0.61,0.02-1.24,0.06-1.8,0.11l-0.09,0.01l-0.08,0c-18.06-0.52-36.11-1.12-54.17-1.72l-27.1-0.93
			l-27.12-0.97l-54.4-2.05L183.94,165.68z"/>
	</g>
	<path class="st2" d="M178.03,148.83c9.42-0.25,18.83-0.3,28.25-0.28l3.53,0.01l3.53,0.03l7.06,0.06l14.12,0.22
		c9.41,0.16,18.82,0.58,28.22,1.03l7.05,0.32l3.53,0.15l3.53,0.13l3.53,0.12l3.53,0.09c2.35,0.06,4.7,0.13,7.06,0.16
		c9.41,0.19,18.82,0.19,28.24,0.17c4.71,0,9.41-0.03,14.12,0c2.35,0,4.71,0.02,7.06,0.05l7.06,0.07c9.41,0.11,18.82,0.2,28.23,0.38
		l7.06,0.14c2.35,0.04,4.7,0.12,7.06,0.18c4.7,0.13,9.41,0.25,14.11,0.42l-0.13,0c1.13-0.05,2.17-0.06,3.26-0.04
		c1.07,0.02,2.14,0.06,3.21,0.13c2.14,0.13,4.27,0.39,6.38,0.74c2.11,0.36,4.21,0.82,6.28,1.43c2.06,0.62,4.09,1.37,6.03,2.32
		c0.97,0.47,1.92,0.99,2.84,1.57c0.92,0.58,1.8,1.21,2.64,1.9c1.69,1.37,3.18,2.99,4.37,4.8c0.6,0.91,1.1,1.87,1.54,2.85
		c0.22,0.49,0.41,1,0.59,1.5c0.16,0.51,0.33,1.02,0.45,1.55c0.55,2.08,0.71,4.22,0.68,6.33l-0.29,0c-0.08-1.04-0.17-2.09-0.38-3.11
		c-0.04-0.26-0.09-0.51-0.15-0.76c-0.06-0.25-0.11-0.51-0.17-0.76c-0.14-0.5-0.27-1-0.44-1.49c-0.64-1.96-1.6-3.8-2.81-5.44
		c-1.23-1.63-2.69-3.07-4.34-4.26c-1.64-1.2-3.44-2.19-5.32-3c-1.87-0.82-3.83-1.44-5.82-1.95c-1.99-0.51-4.02-0.88-6.06-1.15
		c-2.04-0.27-4.1-0.43-6.17-0.51c-1.03-0.04-2.06-0.06-3.09-0.05c-1.02,0.01-2.08,0.04-3.05,0.11l-0.05,0l-0.08,0
		c-4.71-0.02-9.41-0.1-14.12-0.17c-2.35-0.04-4.71-0.05-7.06-0.11l-7.06-0.15c-9.41-0.21-18.82-0.51-28.23-0.78l-7.06-0.22
		c-2.35-0.08-4.7-0.15-7.06-0.25c-4.7-0.17-9.41-0.39-14.11-0.59c-9.41-0.41-18.81-0.79-28.22-0.99c-2.35-0.07-4.71-0.09-7.06-0.13
		l-3.53-0.05l-3.53-0.02l-3.53-0.02l-3.53,0.01l-7.06,0.03c-9.42,0.06-18.83,0.09-28.24-0.13l-14.11-0.37l-7.06-0.24l-3.53-0.12
		l-3.53-0.14c-9.41-0.36-18.81-0.8-28.21-1.44L178.03,148.83z"/>
	<path class="st2" d="M178.03,133.34c4.9-0.28,9.8-0.47,14.71-0.62l3.68-0.11l3.68-0.09c2.45-0.05,4.9-0.12,7.35-0.15l7.35-0.11
		l7.35-0.05c4.9-0.05,9.8-0.01,14.71,0.08c9.8,0.18,19.61,0.64,29.41,0.73c9.8,0.09,19.61-0.05,29.41-0.32l7.35-0.19l3.68-0.1
		l3.68-0.08c4.9-0.1,9.8-0.15,14.71-0.2l14.71-0.14c4.9-0.05,9.8-0.05,14.71-0.03c4.9,0.03,9.8,0.06,14.71,0.14l3.71,0.06
		c1.26,0.04,2.5,0.12,3.74,0.23c2.48,0.23,4.95,0.58,7.4,1.06c2.45,0.48,4.87,1.11,7.24,1.94c2.36,0.83,4.67,1.86,6.8,3.22
		c2.13,1.35,4.07,3.07,5.47,5.2c0.69,1.06,1.24,2.22,1.59,3.43c0.36,1.21,0.53,2.46,0.54,3.69l-0.28,0.02
		c-0.26-2.42-1.15-4.72-2.62-6.59c-0.72-0.94-1.57-1.78-2.49-2.52c-0.92-0.74-1.92-1.4-2.96-1.97c-2.08-1.15-4.34-2-6.63-2.68
		c-2.3-0.67-4.67-1.15-7.05-1.52c-2.38-0.37-4.79-0.6-7.19-0.73c-1.2-0.07-2.41-0.11-3.6-0.12l-3.65,0.05
		c-4.9,0.08-9.8,0.12-14.71,0.14c-4.9,0.02-9.8,0.02-14.71-0.03l-14.71-0.14c-4.9-0.05-9.81-0.1-14.71-0.2l-3.68-0.08l-3.68-0.1
		l-7.35-0.19c-9.81-0.27-19.61-0.41-29.41-0.32c-9.8,0.08-19.61,0.55-29.41,0.73c-4.9,0.09-9.8,0.13-14.71,0.08l-7.35-0.05
		l-7.35-0.11c-2.45-0.03-4.9-0.09-7.35-0.15l-3.68-0.09l-3.68-0.11c-4.9-0.15-9.8-0.34-14.71-0.62V133.34z"/>
	<path class="st2" d="M269.73,229.91c0,3.33-0.68,6.65-1.98,9.75c-0.33,0.77-0.69,1.53-1.1,2.27c-0.4,0.74-0.84,1.47-1.32,2.17
		c-0.96,1.4-2.05,2.72-3.28,3.92c-2.46,2.39-5.43,4.29-8.66,5.51c-3.23,1.22-6.71,1.79-10.15,1.7c-1.72-0.05-3.43-0.26-5.11-0.62
		c-1.67-0.37-3.31-0.88-4.88-1.53c-3.15-1.3-6.03-3.14-8.53-5.39c-2.5-2.25-4.6-4.94-6.1-7.97c-0.2-0.37-0.35-0.77-0.53-1.15
		c-0.17-0.39-0.31-0.79-0.47-1.18c-0.15-0.4-0.28-0.8-0.42-1.2c-0.13-0.4-0.23-0.81-0.35-1.22c-0.42-1.65-0.68-3.34-0.74-5.05
		c-0.13-3.42,0.5-6.91,1.92-10.08c1.4-3.18,3.53-6.03,6.11-8.36c5.16-4.69,12.15-7.27,19.11-7.21c3.48,0.03,6.96,0.67,10.19,1.93
		c0.2,0.08,0.41,0.15,0.61,0.24l0.59,0.27l0.59,0.27l0.58,0.29l0.58,0.3l0.56,0.33l0.56,0.33l0.55,0.35
		c1.46,0.93,2.8,2.02,4.03,3.22c1.23,1.2,2.32,2.52,3.28,3.93c0.48,0.7,0.92,1.43,1.32,2.17c0.41,0.74,0.77,1.5,1.1,2.28
		C269.07,223.25,269.74,226.58,269.73,229.91z M269.44,229.91c0-3.29-0.84-6.56-2.38-9.43c-1.52-2.88-3.72-5.34-6.24-7.29
		c-1.26-0.98-2.61-1.83-4-2.57l-0.52-0.28l-0.54-0.25l-0.53-0.25l-0.55-0.23l-0.54-0.23l-0.55-0.21l-0.55-0.21l-0.56-0.19
		c-2.98-1-6.11-1.5-9.25-1.48c-3.14,0.02-6.25,0.56-9.21,1.58c-2.95,1.03-5.72,2.59-8.12,4.61c-2.39,2.02-4.39,4.51-5.82,7.31
		c-0.19,0.35-0.34,0.71-0.51,1.06c-0.16,0.36-0.3,0.73-0.45,1.09c-0.14,0.37-0.27,0.74-0.4,1.11c-0.12,0.38-0.23,0.76-0.34,1.14
		c-0.41,1.53-0.65,3.11-0.72,4.7c-0.13,3.19,0.48,6.44,1.83,9.39c1.34,2.95,3.36,5.6,5.83,7.7c2.47,2.11,5.4,3.65,8.46,4.61
		c3.07,0.96,6.28,1.34,9.45,1.25c6.34-0.19,12.56-2.28,17.62-6.2c1.26-0.98,2.44-2.08,3.49-3.31c0.53-0.61,1.02-1.25,1.49-1.92
		c0.46-0.67,0.88-1.37,1.26-2.08C268.63,236.48,269.46,233.2,269.44,229.91z"/>
	<g>
		<ellipse class="st3" cx="248.94" cy="238.47" rx="26.35" ry="24.13"/>
		<path class="st2" d="M275.44,238.47c0,3.33-0.68,6.65-1.98,9.75c-0.33,0.77-0.69,1.53-1.1,2.27c-0.4,0.74-0.84,1.47-1.32,2.17
			c-0.96,1.4-2.05,2.72-3.28,3.92c-2.46,2.39-5.43,4.29-8.66,5.51c-3.23,1.22-6.71,1.79-10.15,1.7c-1.72-0.05-3.43-0.26-5.11-0.62
			c-1.67-0.37-3.31-0.88-4.88-1.53c-3.15-1.3-6.03-3.14-8.53-5.39c-2.5-2.25-4.6-4.94-6.1-7.97c-0.2-0.37-0.35-0.77-0.53-1.15
			c-0.17-0.39-0.31-0.79-0.47-1.18c-0.15-0.4-0.28-0.8-0.42-1.2c-0.13-0.4-0.23-0.81-0.35-1.22c-0.42-1.65-0.68-3.34-0.74-5.05
			c-0.13-3.42,0.5-6.91,1.92-10.08c1.4-3.18,3.53-6.03,6.11-8.36c5.16-4.69,12.15-7.27,19.11-7.21c3.48,0.03,6.96,0.67,10.19,1.93
			c0.2,0.08,0.41,0.15,0.61,0.24l0.59,0.27l0.59,0.27l0.58,0.29l0.58,0.3l0.56,0.33l0.56,0.33l0.55,0.35
			c1.46,0.93,2.8,2.02,4.03,3.22c1.23,1.2,2.32,2.52,3.28,3.93c0.48,0.7,0.92,1.43,1.32,2.17c0.41,0.74,0.77,1.5,1.1,2.28
			C274.77,231.81,275.45,235.14,275.44,238.47z M275.15,238.47c0-3.29-0.84-6.56-2.38-9.43c-1.52-2.88-3.72-5.34-6.24-7.29
			c-1.26-0.98-2.61-1.83-4-2.57l-0.52-0.28l-0.54-0.25l-0.53-0.25l-0.55-0.23l-0.54-0.23l-0.55-0.21l-0.55-0.21l-0.56-0.19
			c-2.98-1-6.11-1.5-9.25-1.48c-3.14,0.02-6.25,0.56-9.21,1.58c-2.95,1.03-5.72,2.59-8.12,4.61c-2.39,2.02-4.39,4.51-5.82,7.31
			c-0.19,0.35-0.34,0.71-0.51,1.06c-0.16,0.36-0.3,0.73-0.45,1.09c-0.14,0.37-0.27,0.74-0.4,1.11c-0.12,0.38-0.23,0.76-0.34,1.14
			c-0.41,1.53-0.65,3.11-0.72,4.7c-0.13,3.19,0.48,6.44,1.83,9.39c1.34,2.95,3.36,5.6,5.83,7.7c2.47,2.11,5.4,3.65,8.46,4.61
			c3.07,0.96,6.28,1.34,9.45,1.25c6.34-0.19,12.56-2.28,17.62-6.2c1.26-0.98,2.44-2.08,3.49-3.31c0.53-0.61,1.02-1.25,1.49-1.92
			c0.46-0.67,0.88-1.37,1.26-2.08C274.34,245.04,275.16,241.75,275.15,238.47z"/>
	</g>
	<path class="st2" d="M387.39,235.67c0,3.33-0.68,6.65-1.98,9.75c-0.33,0.77-0.69,1.53-1.1,2.27c-0.4,0.74-0.84,1.47-1.32,2.17
		c-0.96,1.4-2.05,2.72-3.28,3.92c-2.46,2.39-5.43,4.29-8.66,5.51c-3.23,1.22-6.71,1.79-10.15,1.7c-1.72-0.05-3.43-0.26-5.11-0.62
		c-1.67-0.37-3.31-0.88-4.88-1.53c-3.15-1.3-6.03-3.14-8.53-5.39c-2.5-2.25-4.6-4.94-6.1-7.97c-0.2-0.37-0.35-0.77-0.53-1.15
		c-0.17-0.39-0.31-0.79-0.47-1.18c-0.15-0.4-0.28-0.8-0.42-1.2c-0.13-0.4-0.23-0.81-0.35-1.22c-0.42-1.65-0.68-3.34-0.74-5.05
		c-0.13-3.42,0.5-6.91,1.92-10.08c1.4-3.18,3.53-6.03,6.11-8.36c5.16-4.69,12.15-7.27,19.11-7.21c3.48,0.03,6.96,0.67,10.19,1.93
		c0.2,0.08,0.41,0.15,0.61,0.24l0.59,0.27l0.59,0.27l0.58,0.29l0.58,0.3l0.56,0.33l0.56,0.33l0.55,0.35
		c1.46,0.93,2.8,2.02,4.03,3.22c1.23,1.2,2.32,2.52,3.28,3.93c0.48,0.7,0.92,1.43,1.32,2.17c0.41,0.74,0.77,1.5,1.1,2.28
		C386.73,229.01,387.4,232.34,387.39,235.67z M387.1,235.67c0-3.29-0.84-6.56-2.38-9.43c-1.52-2.88-3.72-5.34-6.24-7.29
		c-1.26-0.98-2.61-1.83-4-2.57l-0.52-0.28l-0.54-0.25l-0.53-0.25l-0.55-0.23l-0.54-0.23l-0.55-0.21l-0.55-0.21l-0.56-0.19
		c-2.98-1-6.11-1.5-9.25-1.48c-3.14,0.02-6.25,0.56-9.21,1.58c-2.95,1.03-5.72,2.59-8.12,4.61c-2.39,2.02-4.39,4.51-5.82,7.31
		c-0.19,0.35-0.34,0.71-0.51,1.06c-0.16,0.36-0.3,0.73-0.45,1.09c-0.14,0.37-0.27,0.74-0.4,1.11c-0.12,0.38-0.23,0.76-0.34,1.14
		c-0.41,1.53-0.65,3.11-0.72,4.7c-0.13,3.19,0.48,6.44,1.83,9.39c1.34,2.95,3.36,5.6,5.83,7.7c2.47,2.11,5.4,3.65,8.46,4.61
		c3.07,0.96,6.28,1.34,9.45,1.25c6.34-0.19,12.56-2.28,17.62-6.2c1.26-0.98,2.44-2.08,3.49-3.31c0.53-0.61,1.02-1.25,1.49-1.92
		c0.46-0.67,0.88-1.37,1.26-2.08C386.29,242.24,387.12,238.96,387.1,235.67z"/>
	<g>
		<ellipse class="st3" cx="366.6" cy="244.23" rx="26.35" ry="24.13"/>
		<g>
			<path class="st2" d="M393.1,244.23c0,3.33-0.68,6.65-1.98,9.75c-0.33,0.77-0.69,1.53-1.1,2.27c-0.4,0.74-0.84,1.47-1.32,2.17
				c-0.96,1.4-2.05,2.72-3.28,3.92c-2.46,2.39-5.43,4.29-8.66,5.51c-3.23,1.22-6.71,1.79-10.15,1.7c-1.72-0.05-3.43-0.26-5.11-0.62
				c-1.67-0.37-3.31-0.88-4.88-1.53c-3.15-1.3-6.03-3.14-8.53-5.39c-2.5-2.25-4.6-4.94-6.1-7.97c-0.2-0.37-0.35-0.77-0.53-1.15
				c-0.17-0.39-0.31-0.79-0.47-1.18c-0.15-0.4-0.28-0.8-0.42-1.2c-0.13-0.4-0.23-0.81-0.35-1.22c-0.42-1.65-0.68-3.34-0.74-5.05
				c-0.13-3.42,0.5-6.91,1.92-10.08c1.4-3.18,3.53-6.03,6.11-8.36c5.16-4.69,12.15-7.27,19.11-7.21c3.48,0.03,6.96,0.67,10.19,1.93
				c0.2,0.08,0.41,0.15,0.61,0.24l0.59,0.27l0.59,0.27l0.58,0.29l0.58,0.3l0.56,0.33l0.56,0.33l0.55,0.35
				c1.46,0.93,2.8,2.02,4.03,3.22c1.23,1.2,2.32,2.52,3.28,3.93c0.48,0.7,0.92,1.43,1.32,2.17c0.41,0.74,0.77,1.5,1.1,2.28
				C392.43,237.57,393.11,240.9,393.1,244.23z M392.81,244.23c0-3.29-0.84-6.56-2.38-9.43c-1.52-2.88-3.72-5.34-6.24-7.29
				c-1.26-0.98-2.61-1.83-4-2.57l-0.52-0.28l-0.54-0.25l-0.53-0.25l-0.55-0.23l-0.54-0.23l-0.55-0.21l-0.55-0.21l-0.56-0.19
				c-2.98-1-6.11-1.5-9.25-1.48c-3.14,0.02-6.25,0.56-9.21,1.58c-2.95,1.03-5.72,2.59-8.12,4.61c-2.39,2.02-4.39,4.51-5.82,7.31
				c-0.19,0.35-0.34,0.71-0.51,1.06c-0.16,0.36-0.3,0.73-0.45,1.09c-0.14,0.37-0.27,0.74-0.4,1.11c-0.12,0.38-0.23,0.76-0.34,1.14
				c-0.41,1.53-0.65,3.11-0.72,4.7c-0.13,3.19,0.48,6.44,1.83,9.39c1.34,2.95,3.36,5.6,5.83,7.7c2.47,2.11,5.4,3.65,8.46,4.61
				c3.07,0.96,6.28,1.34,9.45,1.25c6.34-0.19,12.56-2.28,17.62-6.2c1.26-0.98,2.44-2.08,3.49-3.31c0.53-0.61,1.02-1.25,1.49-1.92
				c0.46-0.67,0.88-1.37,1.26-2.08C392,250.8,392.82,247.52,392.81,244.23z"/>
		</g>
	</g>
	<path class="st2" d="M381.68,349.8c0,3.33-0.68,6.65-1.98,9.75c-0.33,0.77-0.69,1.53-1.1,2.27c-0.4,0.74-0.84,1.47-1.32,2.17
		c-0.96,1.4-2.05,2.72-3.28,3.92c-2.46,2.39-5.43,4.29-8.66,5.51c-3.23,1.22-6.71,1.79-10.15,1.7c-1.72-0.05-3.43-0.26-5.11-0.62
		c-1.67-0.37-3.31-0.88-4.88-1.53c-3.15-1.3-6.03-3.14-8.53-5.39c-2.5-2.25-4.6-4.94-6.1-7.97c-0.2-0.37-0.35-0.77-0.53-1.15
		c-0.17-0.39-0.31-0.79-0.47-1.18c-0.15-0.4-0.28-0.8-0.42-1.2c-0.13-0.4-0.23-0.81-0.35-1.22c-0.42-1.65-0.68-3.34-0.74-5.05
		c-0.13-3.42,0.5-6.91,1.92-10.08c1.4-3.18,3.53-6.03,6.11-8.36c5.16-4.69,12.15-7.27,19.11-7.21c3.48,0.03,6.96,0.67,10.19,1.93
		c0.2,0.08,0.41,0.15,0.61,0.24l0.59,0.27l0.59,0.27l0.58,0.29l0.58,0.3l0.56,0.33l0.56,0.33l0.55,0.35
		c1.46,0.93,2.8,2.02,4.03,3.22c1.23,1.2,2.32,2.52,3.28,3.93c0.48,0.7,0.92,1.43,1.32,2.17c0.41,0.74,0.77,1.5,1.1,2.28
		C381.02,343.15,381.7,346.47,381.68,349.8z M381.4,349.8c0-3.29-0.84-6.56-2.38-9.43c-1.52-2.88-3.72-5.34-6.24-7.29
		c-1.26-0.98-2.61-1.83-4-2.57l-0.52-0.28l-0.54-0.25l-0.53-0.25l-0.55-0.23l-0.54-0.23l-0.55-0.21l-0.55-0.21l-0.56-0.19
		c-2.98-1-6.11-1.5-9.25-1.48c-3.14,0.02-6.25,0.56-9.21,1.58c-2.95,1.03-5.72,2.59-8.12,4.61c-2.39,2.02-4.39,4.51-5.82,7.31
		c-0.19,0.35-0.34,0.71-0.51,1.06c-0.16,0.36-0.3,0.73-0.45,1.09c-0.14,0.37-0.27,0.74-0.4,1.11c-0.12,0.38-0.23,0.76-0.34,1.14
		c-0.41,1.53-0.65,3.11-0.72,4.7c-0.13,3.19,0.48,6.44,1.83,9.39c1.34,2.95,3.36,5.6,5.83,7.7c2.47,2.11,5.4,3.65,8.46,4.61
		c3.07,0.96,6.28,1.34,9.45,1.25c6.34-0.19,12.56-2.28,17.62-6.2c1.26-0.98,2.44-2.08,3.49-3.31c0.53-0.61,1.02-1.25,1.49-1.92
		c0.46-0.67,0.88-1.37,1.26-2.08C380.58,356.37,381.41,353.09,381.4,349.8z"/>
	<g>
		<ellipse class="st3" cx="360.89" cy="358.36" rx="26.35" ry="24.13"/>
		<g>
			<path class="st2" d="M387.39,358.36c0,3.33-0.68,6.65-1.98,9.75c-0.33,0.77-0.69,1.53-1.1,2.27c-0.4,0.74-0.84,1.47-1.32,2.17
				c-0.96,1.4-2.05,2.72-3.28,3.92c-2.46,2.39-5.43,4.29-8.66,5.51c-3.23,1.22-6.71,1.79-10.15,1.7c-1.72-0.05-3.43-0.26-5.11-0.62
				c-1.67-0.37-3.31-0.88-4.88-1.53c-3.15-1.3-6.03-3.14-8.53-5.39c-2.5-2.25-4.6-4.94-6.1-7.97c-0.2-0.37-0.35-0.77-0.53-1.15
				c-0.17-0.39-0.31-0.79-0.47-1.18c-0.15-0.4-0.28-0.8-0.42-1.2c-0.13-0.4-0.23-0.81-0.35-1.22c-0.42-1.65-0.68-3.34-0.74-5.05
				c-0.13-3.42,0.5-6.91,1.92-10.08c1.4-3.18,3.53-6.03,6.11-8.36c5.16-4.69,12.15-7.27,19.11-7.21c3.48,0.03,6.96,0.67,10.19,1.93
				c0.2,0.08,0.41,0.15,0.61,0.24l0.59,0.27l0.59,0.27l0.58,0.29l0.58,0.3l0.56,0.33l0.56,0.33l0.55,0.35
				c1.46,0.93,2.8,2.02,4.03,3.22c1.23,1.2,2.32,2.52,3.28,3.93c0.48,0.7,0.92,1.43,1.32,2.17c0.41,0.74,0.77,1.5,1.1,2.28
				C386.73,351.71,387.4,355.03,387.39,358.36z M387.1,358.36c0-3.29-0.84-6.56-2.38-9.43c-1.52-2.88-3.72-5.34-6.24-7.29
				c-1.26-0.98-2.61-1.83-4-2.57l-0.52-0.28l-0.54-0.25l-0.53-0.25l-0.55-0.23l-0.54-0.23l-0.55-0.21l-0.55-0.21l-0.56-0.19
				c-2.98-1-6.11-1.5-9.25-1.48c-3.14,0.02-6.25,0.56-9.21,1.58c-2.95,1.03-5.72,2.59-8.12,4.61c-2.39,2.02-4.39,4.51-5.82,7.31
				c-0.19,0.35-0.34,0.71-0.51,1.06c-0.16,0.36-0.3,0.73-0.45,1.09c-0.14,0.37-0.27,0.74-0.4,1.11c-0.12,0.38-0.23,0.76-0.34,1.14
				c-0.41,1.53-0.65,3.11-0.72,4.7c-0.13,3.19,0.48,6.44,1.83,9.39c1.34,2.95,3.36,5.6,5.83,7.7c2.47,2.11,5.4,3.65,8.46,4.61
				c3.07,0.96,6.28,1.34,9.45,1.25c6.34-0.19,12.56-2.28,17.62-6.2c1.26-0.98,2.44-2.08,3.49-3.31c0.53-0.61,1.02-1.25,1.49-1.92
				c0.46-0.67,0.88-1.37,1.26-2.08C386.29,364.93,387.12,361.65,387.1,358.36z"/>
		</g>
	</g>
	<path class="st2" d="M287.52,338.39c0,3.33-0.68,6.65-1.98,9.75c-0.33,0.77-0.69,1.53-1.1,2.27c-0.4,0.74-0.84,1.47-1.32,2.17
		c-0.96,1.4-2.05,2.72-3.28,3.92c-2.46,2.39-5.43,4.29-8.66,5.51c-3.23,1.22-6.71,1.79-10.15,1.7c-1.72-0.05-3.43-0.26-5.11-0.62
		c-1.67-0.37-3.31-0.88-4.88-1.53c-3.15-1.3-6.03-3.14-8.53-5.39c-2.5-2.25-4.6-4.94-6.1-7.97c-0.2-0.37-0.35-0.77-0.53-1.15
		c-0.17-0.39-0.31-0.79-0.47-1.18c-0.15-0.4-0.28-0.8-0.42-1.2c-0.13-0.4-0.23-0.81-0.35-1.22c-0.42-1.65-0.68-3.34-0.74-5.05
		c-0.13-3.42,0.5-6.91,1.92-10.08c1.4-3.18,3.53-6.03,6.11-8.36c5.16-4.69,12.15-7.27,19.11-7.21c3.48,0.03,6.96,0.67,10.19,1.93
		c0.2,0.08,0.41,0.15,0.61,0.24l0.59,0.27l0.59,0.27l0.58,0.29l0.58,0.3l0.56,0.33l0.56,0.33l0.55,0.35
		c1.46,0.93,2.8,2.02,4.03,3.22c1.23,1.2,2.32,2.52,3.28,3.93c0.48,0.7,0.92,1.43,1.32,2.17c0.41,0.74,0.77,1.5,1.1,2.28
		C286.86,331.73,287.54,335.06,287.52,338.39z M287.24,338.39c0-3.29-0.84-6.56-2.38-9.43c-1.52-2.88-3.72-5.34-6.24-7.29
		c-1.26-0.98-2.61-1.83-4-2.57l-0.52-0.28l-0.54-0.25l-0.53-0.25l-0.55-0.23l-0.54-0.23l-0.55-0.21l-0.55-0.21l-0.56-0.19
		c-2.98-1-6.11-1.5-9.25-1.48c-3.14,0.02-6.25,0.56-9.21,1.58c-2.95,1.03-5.72,2.59-8.12,4.61c-2.39,2.02-4.39,4.51-5.82,7.31
		c-0.19,0.35-0.34,0.71-0.51,1.06c-0.16,0.36-0.3,0.73-0.45,1.09c-0.14,0.37-0.27,0.74-0.4,1.11c-0.12,0.38-0.23,0.76-0.34,1.14
		c-0.41,1.53-0.65,3.11-0.72,4.7c-0.13,3.19,0.48,6.44,1.83,9.39c1.34,2.95,3.36,5.6,5.83,7.7c2.47,2.11,5.4,3.65,8.46,4.61
		c3.07,0.96,6.28,1.34,9.45,1.25c6.34-0.19,12.56-2.28,17.62-6.2c1.26-0.98,2.44-2.08,3.49-3.31c0.53-0.61,1.02-1.25,1.49-1.92
		c0.46-0.67,0.88-1.37,1.26-2.08C286.42,344.96,287.25,341.68,287.24,338.39z"/>
	<g>
		<ellipse class="st3" cx="272.44" cy="349.8" rx="26.35" ry="24.13"/>
		<g>
			<path class="st2" d="M298.94,349.8c0,3.33-0.68,6.65-1.98,9.75c-0.33,0.77-0.69,1.53-1.1,2.27c-0.4,0.74-0.84,1.47-1.32,2.17
				c-0.96,1.4-2.05,2.72-3.28,3.92c-2.46,2.39-5.43,4.29-8.66,5.51c-3.23,1.22-6.71,1.79-10.15,1.7c-1.72-0.05-3.43-0.26-5.11-0.62
				c-1.67-0.37-3.31-0.88-4.88-1.53c-3.15-1.3-6.03-3.14-8.53-5.39c-2.5-2.25-4.6-4.94-6.1-7.97c-0.2-0.37-0.35-0.77-0.53-1.15
				c-0.17-0.39-0.31-0.79-0.47-1.18c-0.15-0.4-0.28-0.8-0.42-1.2c-0.13-0.4-0.23-0.81-0.35-1.22c-0.42-1.65-0.68-3.34-0.74-5.05
				c-0.13-3.42,0.5-6.91,1.92-10.08c1.4-3.18,3.53-6.03,6.11-8.36c5.16-4.69,12.15-7.27,19.11-7.21c3.48,0.03,6.96,0.67,10.19,1.93
				c0.2,0.08,0.41,0.15,0.61,0.24l0.59,0.27l0.59,0.27l0.58,0.29l0.58,0.3l0.56,0.33l0.56,0.33l0.55,0.35
				c1.46,0.93,2.8,2.02,4.03,3.22c1.23,1.2,2.32,2.52,3.28,3.93c0.48,0.7,0.92,1.43,1.32,2.17c0.41,0.74,0.77,1.5,1.1,2.28
				C298.27,343.15,298.95,346.47,298.94,349.8z M298.65,349.8c0-3.29-0.84-6.56-2.38-9.43c-1.52-2.88-3.72-5.34-6.24-7.29
				c-1.26-0.98-2.61-1.83-4-2.57l-0.52-0.28l-0.54-0.25l-0.53-0.25l-0.55-0.23l-0.54-0.23l-0.55-0.21l-0.55-0.21l-0.56-0.19
				c-2.98-1-6.11-1.5-9.25-1.48c-3.14,0.02-6.25,0.56-9.21,1.58c-2.95,1.03-5.72,2.59-8.12,4.61c-2.39,2.02-4.39,4.51-5.82,7.31
				c-0.19,0.35-0.34,0.71-0.51,1.06c-0.16,0.36-0.3,0.73-0.45,1.09c-0.14,0.37-0.27,0.74-0.4,1.11c-0.12,0.38-0.23,0.76-0.34,1.14
				c-0.41,1.53-0.65,3.11-0.72,4.7c-0.13,3.19,0.48,6.44,1.83,9.39c1.34,2.95,3.36,5.6,5.83,7.7c2.47,2.11,5.4,3.65,8.46,4.61
				c3.07,0.96,6.28,1.34,9.45,1.25c6.34-0.19,12.56-2.28,17.62-6.2c1.26-0.98,2.44-2.08,3.49-3.31c0.53-0.61,1.02-1.25,1.49-1.92
				c0.46-0.67,0.88-1.37,1.26-2.08C297.84,356.37,298.66,353.09,298.65,349.8z"/>
		</g>
	</g>
	<g>
		<path class="st1" d="M178.79,142.21c0,0-5.39-39.18-42.74-39.95s-87.55,0-87.55,0s-38.13,1.78-27.85,52.08
			c8.87,43.38,43.32,219.59,43.32,219.59s5.71,47.39,51.59,49.14c45.88,1.76,89.97,0,89.97,0s42.02-1.34,29.13-46.2
			S178.79,142.21,178.79,142.21z"/>
		<path class="st2" d="M178.65,142.23c-0.36-2.28-0.94-4.51-1.61-6.71c-0.68-2.2-1.48-4.36-2.41-6.47c-0.94-2.1-1.97-4.16-3.17-6.13
			c-1.2-1.96-2.5-3.86-3.96-5.64c-0.36-0.45-0.75-0.87-1.13-1.3l-0.57-0.65l-0.6-0.62c-0.41-0.41-0.79-0.83-1.21-1.22l-1.27-1.16
			c-1.74-1.49-3.57-2.89-5.56-4.03c-0.97-0.62-2-1.11-3.02-1.63l-0.38-0.2l-0.4-0.17l-0.79-0.33l-0.79-0.33
			c-0.27-0.11-0.52-0.23-0.8-0.32l-1.63-0.55l-0.81-0.28l-0.83-0.22l-1.66-0.43c-0.14-0.03-0.28-0.07-0.42-0.11l-0.42-0.08
			l-0.84-0.16l-1.69-0.31l-1.71-0.2c-0.57-0.06-1.14-0.14-1.71-0.18l-1.72-0.08c-0.57-0.02-1.14-0.06-1.72-0.07l-1.73-0.02
			l-3.46-0.03c-4.61-0.04-9.23-0.04-13.84-0.03c-9.23,0.02-18.46,0.09-27.69,0.21c-9.23,0.1-18.46,0.26-27.68,0.41l-6.92,0.12
			l-3.46,0.06l-1.73,0.03l-0.43,0.01l-0.21,0c-0.07,0-0.15,0-0.18,0.01c-0.24,0.02-0.52,0.05-0.79,0.08
			c-2.19,0.28-4.37,0.82-6.47,1.54c-2.11,0.73-4.14,1.66-6.04,2.79c-1.9,1.14-3.68,2.48-5.28,3.99c-1.61,1.52-2.99,3.26-4.2,5.1
			l-0.87,1.41l-0.76,1.47c-0.13,0.25-0.26,0.49-0.38,0.74l-0.32,0.77c-0.21,0.51-0.44,1.02-0.65,1.53c-0.73,2.1-1.38,4.24-1.75,6.45
			c-0.81,4.41-0.93,8.96-0.63,13.47l0.13,1.7l0.06,0.85l0.11,0.85l0.43,3.38c0.4,2.25,0.77,4.48,1.23,6.75
			c7.02,36.25,13.73,72.57,20.74,108.82c7.01,36.25,14.23,72.47,21.61,108.65l0,0.01l0.01,0.04c0.17,1.17,0.41,2.39,0.68,3.57
			c0.27,1.19,0.57,2.37,0.91,3.55c0.67,2.35,1.46,4.66,2.36,6.93c1.81,4.53,4.1,8.87,6.88,12.86c2.79,3.98,6.09,7.59,9.88,10.61
			c1.89,1.51,3.89,2.87,5.99,4.07c2.1,1.19,4.29,2.21,6.55,3.07c4.51,1.72,9.28,2.74,14.11,3.17c0.6,0.05,1.21,0.11,1.81,0.14
			l1.82,0.09l3.7,0.11c2.46,0.07,4.93,0.16,7.39,0.2c9.86,0.23,19.72,0.33,29.58,0.32c9.86-0.01,19.73-0.12,29.58-0.33
			c4.93-0.1,9.86-0.24,14.79-0.4l3.69-0.13l0.92-0.04l0.43-0.02l0.43-0.03c0.58-0.05,1.18-0.11,1.76-0.19
			c2.36-0.32,4.71-0.83,6.98-1.54c4.55-1.4,8.86-3.6,12.33-6.73c1.73-1.57,3.23-3.36,4.45-5.34c0.61-0.99,1.14-2.02,1.61-3.09
			c0.46-1.07,0.84-2.17,1.17-3.29c0.62-2.26,0.99-4.59,1.1-6.96c0.11-2.37,0-4.76-0.28-7.14c-0.28-2.38-0.73-4.75-1.3-7.09
			l-0.21-0.88l-0.24-0.88l-0.48-1.76l-0.98-3.58c-0.65-2.39-1.33-4.77-1.94-7.17l-1.84-7.18c-1.25-4.78-2.41-9.58-3.6-14.37
			c-1.2-4.79-2.36-9.59-3.52-14.39l-1.74-7.2c-0.58-2.4-1.14-4.8-1.71-7.21l-3.39-14.42l-3.33-14.43
			c-2.21-9.62-4.39-19.25-6.53-28.89c-4.32-19.27-8.55-38.56-12.83-57.83C187.33,180.76,183.02,161.5,178.65,142.23z M178.93,142.18
			c4.38,19.24,8.87,38.47,13.46,57.68c2.29,9.6,4.61,19.2,6.94,28.79l7.01,28.77l14.08,57.53l3.54,14.37
			c1.18,4.79,2.36,9.58,3.58,14.36c1.21,4.78,2.39,9.57,3.66,14.34l1.87,7.16c0.3,1.2,0.64,2.38,0.97,3.56l0.98,3.56l0.98,3.56
			l0.49,1.81l0.25,0.91l0.22,0.92c0.6,2.45,1.07,4.94,1.36,7.46c0.3,2.52,0.41,5.08,0.29,7.64c-0.11,2.56-0.52,5.13-1.21,7.63
			c-0.36,1.25-0.79,2.48-1.31,3.68c-0.53,1.19-1.13,2.36-1.81,3.47c-1.38,2.22-3.09,4.24-5.02,5.98c-1.94,1.73-4.1,3.2-6.37,4.4
			c-2.28,1.21-4.66,2.16-7.11,2.9c-2.44,0.74-4.94,1.28-7.47,1.61c-0.63,0.08-1.27,0.15-1.92,0.2l-0.49,0.03l-0.49,0.02l-0.93,0.03
			l-3.71,0.11c-4.94,0.14-9.88,0.25-14.82,0.32c-9.88,0.16-19.76,0.22-29.64,0.17c-9.88-0.04-19.76-0.22-29.64-0.52
			c-2.47-0.06-4.94-0.17-7.41-0.26l-3.7-0.14l-1.88-0.11c-0.63-0.04-1.25-0.11-1.88-0.16c-5-0.51-9.96-1.62-14.66-3.46
			c-2.35-0.92-4.63-2.02-6.8-3.3c-2.17-1.28-4.24-2.73-6.19-4.33c-3.9-3.19-7.27-6.99-10.09-11.13c-2.82-4.15-5.09-8.63-6.88-13.29
			c-0.89-2.33-1.67-4.7-2.32-7.11c-0.32-1.2-0.62-2.42-0.88-3.64c-0.26-1.23-0.49-2.44-0.65-3.71l0.01,0.05
			c-6.91-36.27-13.98-72.51-21.27-108.71c-7.28-36.2-14.86-72.34-22.14-108.53c-0.47-2.25-0.88-4.56-1.3-6.86l-0.46-3.48l-0.12-0.87
			l-0.07-0.88l-0.13-1.76c-0.32-4.68-0.2-9.43,0.65-14.11c0.39-2.34,1.07-4.64,1.86-6.89c0.22-0.55,0.46-1.1,0.69-1.66l0.35-0.83
			c0.13-0.27,0.27-0.53,0.41-0.8l0.83-1.6l0.95-1.53c1.33-2,2.84-3.9,4.6-5.55c1.75-1.65,3.69-3.1,5.76-4.31
			c2.07-1.21,4.26-2.2,6.52-2.96c2.26-0.77,4.59-1.3,6.99-1.58c0.31-0.03,0.59-0.06,0.93-0.08c0.11-0.01,0.17-0.01,0.25-0.01l0.22,0
			l0.44,0l1.73-0.01l3.46-0.02L61.4,101c9.23-0.03,18.47,0,27.7,0.06c9.23,0.07,18.47,0.18,27.7,0.35c4.62,0.08,9.23,0.19,13.85,0.3
			l3.46,0.09l1.73,0.04c0.58,0.02,1.16,0.07,1.74,0.1l1.74,0.11c0.58,0.05,1.15,0.14,1.73,0.21l1.73,0.23l1.71,0.35l0.85,0.17
			l0.43,0.09c0.14,0.03,0.28,0.08,0.42,0.11l1.68,0.47l0.84,0.23l0.82,0.29l1.64,0.58c0.28,0.09,0.54,0.22,0.81,0.33l0.8,0.35
			l0.8,0.35l0.4,0.17l0.39,0.2c1.03,0.54,2.07,1.05,3.04,1.69c2,1.19,3.84,2.62,5.59,4.14l1.28,1.18c0.42,0.4,0.81,0.83,1.22,1.24
			l0.6,0.63l0.57,0.66c0.37,0.44,0.76,0.87,1.13,1.32c1.45,1.81,2.76,3.72,3.96,5.7c1.2,1.98,2.23,4.06,3.16,6.18
			c0.93,2.12,1.73,4.29,2.41,6.5C178,137.65,178.57,139.9,178.93,142.18z"/>
	</g>
	<path class="st2" d="M31.34,154.25l35.25-0.43l35.55-0.38l17.85-0.15l17.89-0.12l35.81-0.11l1.02,0l0.23,0.99
		c3.97,16.88,7.87,33.78,11.68,50.7l11.43,50.76c1.93,8.45,3.87,16.91,5.85,25.35c1.96,8.45,3.96,16.88,5.96,25.32
		c4.01,16.87,8.08,33.73,12.21,50.57l0.23,0.93l-0.97,0.01l-36.99,0.32l-18.5,0.12l-18.5,0.09l-73.98,0.23l-1.23,0l-0.25-1.21
		l-5.27-25.47l-5.18-25.49l-2.58-12.74l-2.55-12.74l-5.07-25.45l-10.01-50.72L31.34,154.25z M31.56,154.43l11.09,50.92l10.95,50.57
		l5.4,25.2l2.69,12.59l2.66,12.58l5.29,25.16l5.21,25.17l-1.49-1.21l73.98,0.23l18.5,0.09l18.5,0.12l36.99,0.32l-0.74,0.94
		c-3.81-16.92-7.68-33.82-11.6-50.71c-1.97-8.44-3.94-16.89-5.95-25.32c-1.99-8.44-4.03-16.87-6.06-25.3l-12.39-50.53
		c-4.13-16.84-8.17-33.71-12.13-50.59l1.25,0.99l-35.31-0.11l-17.68-0.12L103,155.24l-35.57-0.38L31.56,154.43z"/>
	<path class="st2" d="M94.19,239.15c-0.01,1.87-0.24,3.74-0.72,5.58c-0.48,1.84-1.24,3.65-2.38,5.28c-1.13,1.62-2.65,3.03-4.47,3.97
		c-1.81,0.94-3.89,1.41-5.92,1.32c-2.04-0.08-4.02-0.74-5.71-1.74c-1.7-1-3.14-2.34-4.34-3.83c-1.2-1.49-2.15-3.16-2.83-4.95
		c-0.68-1.78-1.12-3.68-1.25-5.62c-0.12-1.94,0.05-3.93,0.62-5.84c0.56-1.91,1.52-3.72,2.78-5.3c1.26-1.58,2.86-2.94,4.71-3.89
		c1.84-0.96,3.94-1.47,6.02-1.45c2.09,0.02,4.17,0.56,5.98,1.54c1.82,0.98,3.32,2.42,4.45,4.05c1.13,1.63,1.88,3.46,2.37,5.29
		C93.97,235.41,94.19,237.28,94.19,239.15z M93.9,239.15c-0.01-1.84-0.4-3.67-1.14-5.33c-0.74-1.66-1.83-3.13-3.09-4.32
		c-1.26-1.2-2.71-2.13-4.22-2.79c-1.51-0.66-3.13-1-4.76-0.98c-1.62,0.01-3.22,0.39-4.71,1.07c-1.48,0.69-2.83,1.71-3.96,2.95
		c-1.13,1.25-2.01,2.73-2.68,4.32c-0.09,0.2-0.16,0.4-0.24,0.6c-0.08,0.2-0.15,0.41-0.21,0.61c-0.07,0.21-0.14,0.41-0.19,0.62
		c-0.06,0.21-0.12,0.42-0.17,0.63c-0.21,0.85-0.34,1.72-0.41,2.61c-0.12,1.77,0.05,3.58,0.59,5.3c0.54,1.71,1.43,3.33,2.63,4.67
		c1.19,1.34,2.71,2.38,4.33,3.01c1.63,0.64,3.35,0.87,5.02,0.78c3.35-0.18,6.47-1.67,9-4.08c1.26-1.21,2.34-2.68,3.08-4.34
		C93.53,242.83,93.91,240.99,93.9,239.15z"/>
	<g>
		<ellipse class="st3" cx="86.4" cy="242" rx="13.35" ry="14.95"/>
		<path class="st2" d="M99.9,242c-0.01,1.87-0.24,3.74-0.72,5.58c-0.48,1.84-1.24,3.65-2.38,5.28c-1.13,1.62-2.65,3.03-4.47,3.97
			c-1.81,0.94-3.89,1.41-5.92,1.32c-2.04-0.08-4.02-0.74-5.71-1.74c-1.7-1-3.14-2.34-4.34-3.83c-1.2-1.49-2.15-3.16-2.83-4.95
			c-0.68-1.78-1.12-3.68-1.25-5.62c-0.12-1.94,0.05-3.93,0.62-5.84c0.56-1.91,1.52-3.72,2.78-5.3c1.26-1.58,2.86-2.94,4.71-3.89
			c1.84-0.96,3.94-1.47,6.02-1.45c2.09,0.02,4.17,0.56,5.98,1.54c1.82,0.98,3.32,2.42,4.45,4.05c1.13,1.63,1.88,3.46,2.37,5.29
			C99.68,238.26,99.9,240.13,99.9,242z M99.61,242c-0.01-1.84-0.4-3.67-1.14-5.33c-0.74-1.66-1.83-3.13-3.09-4.32
			c-1.26-1.2-2.71-2.13-4.22-2.79c-1.51-0.66-3.13-1-4.76-0.98c-1.62,0.01-3.22,0.39-4.71,1.07c-1.48,0.69-2.83,1.71-3.96,2.95
			c-1.13,1.25-2.01,2.73-2.68,4.32c-0.09,0.2-0.16,0.4-0.24,0.6c-0.08,0.2-0.15,0.41-0.21,0.61c-0.07,0.21-0.14,0.41-0.19,0.62
			c-0.06,0.21-0.12,0.42-0.17,0.63c-0.21,0.85-0.34,1.72-0.41,2.61c-0.12,1.77,0.05,3.58,0.59,5.3c0.54,1.71,1.43,3.33,2.63,4.67
			c1.19,1.34,2.71,2.38,4.33,3.01c1.63,0.64,3.35,0.87,5.02,0.78c3.35-0.18,6.47-1.67,9-4.08c1.26-1.21,2.34-2.68,3.08-4.34
			C99.23,245.68,99.62,243.84,99.61,242z"/>
	</g>
	<path class="st2" d="M183.5,246.51c-0.01,1.87-0.24,3.74-0.72,5.58c-0.48,1.84-1.24,3.65-2.38,5.28c-1.13,1.62-2.65,3.03-4.47,3.97
		c-1.81,0.94-3.89,1.41-5.92,1.32c-2.04-0.08-4.02-0.74-5.71-1.74c-1.7-1-3.14-2.34-4.34-3.83c-1.2-1.49-2.15-3.16-2.83-4.95
		c-0.68-1.78-1.12-3.68-1.25-5.62c-0.12-1.94,0.05-3.93,0.62-5.84c0.56-1.91,1.52-3.72,2.78-5.3c1.26-1.58,2.86-2.94,4.71-3.89
		c1.84-0.96,3.94-1.47,6.02-1.45c2.09,0.02,4.17,0.56,5.98,1.54c1.82,0.98,3.32,2.42,4.45,4.05c1.13,1.63,1.88,3.46,2.37,5.29
		C183.28,242.77,183.5,244.64,183.5,246.51z M183.22,246.51c-0.01-1.84-0.4-3.67-1.14-5.33c-0.74-1.66-1.83-3.13-3.09-4.32
		c-1.26-1.2-2.71-2.13-4.22-2.79c-1.51-0.66-3.13-1-4.76-0.98c-1.62,0.01-3.22,0.39-4.71,1.07c-1.48,0.69-2.83,1.71-3.96,2.95
		c-1.13,1.25-2.01,2.73-2.68,4.32c-0.09,0.2-0.16,0.4-0.24,0.6c-0.08,0.2-0.15,0.41-0.21,0.61c-0.07,0.21-0.14,0.41-0.19,0.62
		c-0.06,0.21-0.12,0.42-0.17,0.63c-0.21,0.85-0.34,1.72-0.41,2.61c-0.12,1.77,0.05,3.58,0.59,5.3c0.54,1.71,1.43,3.33,2.63,4.67
		c1.19,1.34,2.71,2.38,4.33,3.01c1.63,0.64,3.35,0.87,5.02,0.78c3.35-0.18,6.47-1.67,9-4.08c1.26-1.21,2.34-2.68,3.08-4.34
		C182.84,250.19,183.22,248.35,183.22,246.51z"/>
	<g>
		<ellipse class="st3" cx="172.86" cy="246.51" rx="13.35" ry="14.95"/>
		<path class="st2" d="M186.36,246.51c-0.01,1.87-0.24,3.74-0.72,5.58c-0.48,1.84-1.24,3.65-2.38,5.28
			c-1.13,1.62-2.65,3.03-4.47,3.97c-1.81,0.94-3.89,1.41-5.92,1.32c-2.04-0.08-4.02-0.74-5.71-1.74c-1.7-1-3.14-2.34-4.34-3.83
			c-1.2-1.49-2.15-3.16-2.83-4.95c-0.68-1.78-1.12-3.68-1.25-5.62c-0.12-1.94,0.05-3.93,0.62-5.84c0.56-1.91,1.52-3.72,2.78-5.3
			c1.26-1.58,2.86-2.94,4.71-3.89c1.84-0.96,3.94-1.47,6.02-1.45c2.09,0.02,4.17,0.56,5.98,1.54c1.82,0.98,3.32,2.42,4.45,4.05
			c1.13,1.63,1.88,3.46,2.37,5.29C186.14,242.77,186.36,244.64,186.36,246.51z M186.07,246.51c-0.01-1.84-0.4-3.67-1.14-5.33
			c-0.74-1.66-1.83-3.13-3.09-4.32c-1.26-1.2-2.71-2.13-4.22-2.79c-1.51-0.66-3.13-1-4.76-0.98c-1.62,0.01-3.22,0.39-4.71,1.07
			c-1.48,0.69-2.83,1.71-3.96,2.95c-1.13,1.25-2.01,2.73-2.68,4.32c-0.09,0.2-0.16,0.4-0.24,0.6c-0.08,0.2-0.15,0.41-0.21,0.61
			c-0.07,0.21-0.14,0.41-0.19,0.62c-0.06,0.21-0.12,0.42-0.17,0.63c-0.21,0.85-0.34,1.72-0.41,2.61c-0.12,1.77,0.05,3.58,0.59,5.3
			c0.54,1.71,1.43,3.33,2.63,4.67c1.19,1.34,2.71,2.38,4.33,3.01c1.63,0.64,3.35,0.87,5.02,0.78c3.35-0.18,6.47-1.67,9-4.08
			c1.26-1.21,2.34-2.68,3.08-4.34C185.69,250.19,186.08,248.35,186.07,246.51z"/>
	</g>
	<path class="st2" d="M142.41,241.09c-0.01,1.87-0.24,3.74-0.72,5.58c-0.48,1.84-1.24,3.65-2.38,5.28
		c-1.13,1.62-2.65,3.03-4.47,3.97c-1.81,0.94-3.89,1.41-5.92,1.32c-2.04-0.08-4.02-0.74-5.71-1.74c-1.7-1-3.14-2.34-4.34-3.83
		c-1.2-1.49-2.15-3.16-2.83-4.95c-0.68-1.78-1.12-3.68-1.25-5.62c-0.12-1.94,0.05-3.93,0.62-5.84c0.56-1.91,1.52-3.72,2.78-5.3
		c1.26-1.58,2.86-2.94,4.71-3.89c1.84-0.96,3.94-1.47,6.02-1.45c2.09,0.02,4.17,0.56,5.98,1.54c1.82,0.98,3.32,2.42,4.45,4.05
		c1.13,1.63,1.88,3.46,2.37,5.29C142.2,237.35,142.42,239.22,142.41,241.09z M142.13,241.09c-0.01-1.84-0.4-3.67-1.14-5.33
		c-0.74-1.66-1.83-3.13-3.09-4.32c-1.26-1.2-2.71-2.13-4.22-2.79c-1.51-0.66-3.13-1-4.76-0.98c-1.62,0.01-3.22,0.39-4.71,1.07
		c-1.48,0.69-2.83,1.71-3.96,2.95c-1.13,1.25-2.01,2.73-2.68,4.32c-0.09,0.2-0.16,0.4-0.24,0.6c-0.08,0.2-0.15,0.41-0.21,0.61
		c-0.07,0.21-0.14,0.41-0.19,0.62c-0.06,0.21-0.12,0.42-0.17,0.63c-0.21,0.85-0.34,1.72-0.41,2.61c-0.12,1.77,0.05,3.58,0.59,5.3
		c0.54,1.71,1.43,3.33,2.63,4.67c1.19,1.34,2.71,2.38,4.33,3.01c1.63,0.64,3.35,0.87,5.02,0.78c3.35-0.18,6.47-1.67,9-4.08
		c1.26-1.21,2.34-2.68,3.08-4.34C141.75,244.77,142.13,242.93,142.13,241.09z"/>
	<g>
		<ellipse class="st3" cx="131.77" cy="241.09" rx="13.35" ry="14.95"/>
		<path class="st2" d="M145.27,241.09c-0.01,1.87-0.24,3.74-0.72,5.58c-0.48,1.84-1.24,3.65-2.38,5.28
			c-1.13,1.62-2.65,3.03-4.47,3.97c-1.81,0.94-3.89,1.41-5.92,1.32c-2.04-0.08-4.02-0.74-5.71-1.74c-1.7-1-3.14-2.34-4.34-3.83
			c-1.2-1.49-2.15-3.16-2.83-4.95c-0.68-1.78-1.12-3.68-1.25-5.62c-0.12-1.94,0.05-3.93,0.62-5.84c0.56-1.91,1.52-3.72,2.78-5.3
			c1.26-1.58,2.86-2.94,4.71-3.89c1.84-0.96,3.94-1.47,6.02-1.45c2.09,0.02,4.17,0.56,5.98,1.54c1.82,0.98,3.32,2.42,4.45,4.05
			c1.13,1.63,1.88,3.46,2.37,5.29C145.05,237.35,145.27,239.22,145.27,241.09z M144.98,241.09c-0.01-1.84-0.4-3.67-1.14-5.33
			c-0.74-1.66-1.83-3.13-3.09-4.32c-1.26-1.2-2.71-2.13-4.22-2.79c-1.51-0.66-3.13-1-4.76-0.98c-1.62,0.01-3.22,0.39-4.71,1.07
			c-1.48,0.69-2.83,1.71-3.96,2.95c-1.13,1.25-2.01,2.73-2.68,4.32c-0.09,0.2-0.16,0.4-0.24,0.6c-0.08,0.2-0.15,0.41-0.21,0.61
			c-0.07,0.21-0.14,0.41-0.19,0.62c-0.06,0.21-0.12,0.42-0.17,0.63c-0.21,0.85-0.34,1.72-0.41,2.61c-0.12,1.77,0.05,3.58,0.59,5.3
			c0.54,1.71,1.43,3.33,2.63,4.67c1.19,1.34,2.71,2.38,4.33,3.01c1.63,0.64,3.35,0.87,5.02,0.78c3.35-0.18,6.47-1.67,9-4.08
			c1.26-1.21,2.34-2.68,3.08-4.34C144.6,244.77,144.99,242.93,144.98,241.09z"/>
	</g>
	<path class="st2" d="M107.6,301.3c-0.01,1.87-0.24,3.74-0.72,5.58c-0.48,1.84-1.24,3.65-2.38,5.28c-1.13,1.62-2.65,3.03-4.47,3.97
		c-1.81,0.94-3.89,1.41-5.92,1.32c-2.04-0.08-4.02-0.74-5.71-1.74c-1.7-1-3.14-2.34-4.34-3.83c-1.2-1.49-2.15-3.16-2.83-4.95
		c-0.68-1.78-1.12-3.68-1.25-5.62c-0.12-1.94,0.05-3.93,0.62-5.84c0.56-1.91,1.52-3.72,2.78-5.3c1.26-1.58,2.86-2.94,4.71-3.89
		c1.84-0.96,3.94-1.47,6.02-1.45c2.09,0.02,4.17,0.56,5.98,1.54c1.82,0.98,3.32,2.42,4.45,4.05c1.13,1.63,1.88,3.45,2.37,5.29
		C107.39,297.55,107.61,299.43,107.6,301.3z M107.32,301.3c-0.01-1.84-0.4-3.67-1.14-5.33c-0.74-1.66-1.83-3.13-3.09-4.32
		c-1.26-1.2-2.71-2.13-4.22-2.79c-1.51-0.66-3.13-1-4.76-0.98c-1.62,0.01-3.22,0.39-4.71,1.07c-1.48,0.69-2.83,1.71-3.96,2.95
		c-1.13,1.25-2.01,2.73-2.68,4.32c-0.09,0.2-0.16,0.4-0.24,0.6c-0.08,0.2-0.15,0.41-0.21,0.61c-0.07,0.21-0.14,0.41-0.19,0.62
		c-0.06,0.21-0.12,0.42-0.17,0.63c-0.21,0.85-0.34,1.72-0.41,2.61c-0.12,1.77,0.05,3.58,0.59,5.3c0.54,1.71,1.43,3.33,2.63,4.67
		c1.19,1.34,2.71,2.38,4.33,3.01c1.63,0.64,3.35,0.87,5.02,0.78c3.35-0.18,6.47-1.67,9-4.08c1.26-1.21,2.34-2.68,3.08-4.34
		C106.94,304.97,107.32,303.14,107.32,301.3z"/>
	<g>
		<ellipse class="st3" cx="96.96" cy="298.44" rx="13.35" ry="14.95"/>
		<path class="st2" d="M110.46,298.44c-0.01,1.87-0.24,3.74-0.72,5.58c-0.48,1.84-1.24,3.65-2.38,5.28
			c-1.13,1.62-2.65,3.03-4.47,3.97c-1.81,0.94-3.89,1.41-5.92,1.32c-2.04-0.08-4.02-0.74-5.71-1.74c-1.7-1-3.14-2.34-4.34-3.83
			c-1.2-1.49-2.15-3.16-2.83-4.95c-0.68-1.78-1.12-3.68-1.25-5.62c-0.12-1.94,0.05-3.93,0.62-5.84c0.56-1.91,1.52-3.72,2.78-5.3
			c1.26-1.58,2.86-2.94,4.71-3.89c1.84-0.96,3.94-1.47,6.02-1.45c2.09,0.02,4.17,0.56,5.98,1.54c1.82,0.98,3.32,2.42,4.45,4.05
			c1.13,1.63,1.88,3.46,2.37,5.29C110.24,294.7,110.46,296.57,110.46,298.44z M110.17,298.44c-0.01-1.84-0.4-3.67-1.14-5.33
			c-0.74-1.66-1.83-3.13-3.09-4.32c-1.26-1.2-2.71-2.13-4.22-2.79c-1.51-0.66-3.13-1-4.76-0.98c-1.62,0.01-3.22,0.39-4.71,1.07
			c-1.48,0.69-2.83,1.71-3.96,2.95c-1.13,1.25-2.01,2.73-2.68,4.32c-0.09,0.2-0.16,0.4-0.24,0.6c-0.08,0.2-0.15,0.41-0.21,0.61
			c-0.07,0.21-0.14,0.41-0.19,0.62c-0.06,0.21-0.12,0.42-0.17,0.63c-0.21,0.85-0.34,1.72-0.41,2.61c-0.12,1.77,0.05,3.58,0.59,5.3
			c0.54,1.71,1.43,3.33,2.63,4.67c1.19,1.34,2.71,2.38,4.33,3.01c1.63,0.64,3.35,0.87,5.02,0.78c3.35-0.18,6.47-1.67,9-4.08
			c1.26-1.21,2.34-2.68,3.08-4.34C109.79,302.12,110.18,300.28,110.17,298.44z"/>
	</g>
	<path class="st2" d="M150.4,302.15c-0.01,1.87-0.24,3.74-0.72,5.58c-0.48,1.84-1.24,3.65-2.38,5.28c-1.13,1.62-2.65,3.03-4.47,3.97
		c-1.81,0.94-3.89,1.41-5.92,1.32c-2.04-0.08-4.02-0.74-5.71-1.74c-1.7-1-3.14-2.34-4.34-3.83c-1.2-1.49-2.15-3.16-2.83-4.95
		c-0.68-1.78-1.12-3.68-1.25-5.62c-0.12-1.94,0.05-3.93,0.62-5.84c0.56-1.91,1.52-3.72,2.78-5.3c1.26-1.58,2.86-2.94,4.71-3.89
		c1.84-0.96,3.94-1.47,6.02-1.45c2.09,0.02,4.17,0.56,5.98,1.54c1.82,0.98,3.32,2.42,4.45,4.05c1.13,1.63,1.88,3.45,2.37,5.29
		C150.19,298.41,150.41,300.28,150.4,302.15z M150.12,302.15c-0.01-1.84-0.4-3.67-1.14-5.33c-0.74-1.66-1.83-3.13-3.09-4.32
		c-1.26-1.2-2.71-2.13-4.22-2.79c-1.51-0.66-3.13-1-4.76-0.98c-1.62,0.01-3.22,0.39-4.71,1.07c-1.48,0.69-2.83,1.71-3.96,2.95
		c-1.13,1.25-2.01,2.73-2.68,4.32c-0.09,0.2-0.16,0.4-0.24,0.6c-0.08,0.2-0.15,0.41-0.21,0.61c-0.07,0.21-0.14,0.41-0.19,0.62
		c-0.06,0.21-0.12,0.42-0.17,0.63c-0.21,0.85-0.34,1.72-0.41,2.61c-0.12,1.77,0.05,3.58,0.59,5.3c0.54,1.71,1.43,3.33,2.63,4.67
		c1.19,1.34,2.71,2.38,4.33,3.01c1.63,0.64,3.35,0.87,5.02,0.78c3.35-0.18,6.47-1.67,9-4.08c1.26-1.21,2.34-2.68,3.08-4.34
		C149.74,305.83,150.12,303.99,150.12,302.15z"/>
	<g>
		<ellipse class="st3" cx="136.91" cy="299.3" rx="13.35" ry="14.95"/>
		<path class="st2" d="M150.4,299.3c-0.01,1.87-0.24,3.74-0.72,5.58c-0.48,1.84-1.24,3.65-2.38,5.28c-1.13,1.62-2.65,3.03-4.47,3.97
			c-1.81,0.94-3.89,1.41-5.92,1.32c-2.04-0.08-4.02-0.74-5.71-1.74c-1.7-1-3.14-2.34-4.34-3.83c-1.2-1.49-2.15-3.16-2.83-4.95
			c-0.68-1.78-1.12-3.68-1.25-5.62c-0.12-1.94,0.05-3.93,0.62-5.84c0.56-1.91,1.52-3.72,2.78-5.3c1.26-1.58,2.86-2.94,4.71-3.89
			c1.84-0.96,3.94-1.47,6.02-1.45c2.09,0.02,4.17,0.56,5.98,1.54c1.82,0.98,3.32,2.42,4.45,4.05c1.13,1.63,1.88,3.46,2.37,5.29
			C150.19,295.56,150.41,297.43,150.4,299.3z M150.12,299.3c-0.01-1.84-0.4-3.67-1.14-5.33c-0.74-1.66-1.83-3.13-3.09-4.32
			c-1.26-1.2-2.71-2.13-4.22-2.79c-1.51-0.66-3.13-1-4.76-0.98c-1.62,0.01-3.22,0.39-4.71,1.07c-1.48,0.69-2.83,1.71-3.96,2.95
			c-1.13,1.25-2.01,2.73-2.68,4.32c-0.09,0.2-0.16,0.4-0.24,0.6c-0.08,0.2-0.15,0.41-0.21,0.61c-0.07,0.21-0.14,0.41-0.19,0.62
			c-0.06,0.21-0.12,0.42-0.17,0.63c-0.21,0.85-0.34,1.72-0.41,2.61c-0.12,1.77,0.05,3.58,0.59,5.3c0.54,1.71,1.43,3.33,2.63,4.67
			c1.19,1.34,2.71,2.38,4.33,3.01c1.63,0.64,3.35,0.87,5.02,0.78c3.35-0.18,6.47-1.67,9-4.08c1.26-1.21,2.34-2.68,3.08-4.34
			C149.74,302.98,150.12,301.14,150.12,299.3z"/>
	</g>
	<path class="st2" d="M190.35,305.01c-0.01,1.87-0.24,3.74-0.72,5.58c-0.48,1.84-1.24,3.65-2.38,5.28
		c-1.13,1.62-2.65,3.03-4.47,3.97c-1.81,0.94-3.89,1.41-5.92,1.32c-2.04-0.08-4.02-0.74-5.71-1.74c-1.7-1-3.14-2.34-4.34-3.83
		c-1.2-1.49-2.15-3.16-2.83-4.95c-0.68-1.78-1.12-3.68-1.25-5.62c-0.12-1.94,0.05-3.93,0.62-5.84c0.56-1.91,1.52-3.72,2.78-5.3
		c1.26-1.58,2.86-2.94,4.71-3.89c1.84-0.96,3.94-1.47,6.02-1.45c2.09,0.02,4.17,0.56,5.98,1.54c1.82,0.98,3.32,2.42,4.45,4.05
		c1.13,1.63,1.88,3.46,2.37,5.29C190.13,301.26,190.35,303.14,190.35,305.01z M190.06,305.01c-0.01-1.84-0.4-3.67-1.14-5.33
		c-0.74-1.66-1.83-3.13-3.09-4.32c-1.26-1.2-2.71-2.13-4.22-2.79c-1.51-0.66-3.13-1-4.76-0.98c-1.62,0.01-3.22,0.39-4.71,1.07
		c-1.48,0.69-2.83,1.71-3.96,2.95c-1.13,1.25-2.01,2.73-2.68,4.32c-0.09,0.2-0.16,0.4-0.24,0.6c-0.08,0.2-0.15,0.41-0.21,0.61
		c-0.07,0.21-0.14,0.41-0.19,0.62c-0.06,0.21-0.12,0.42-0.17,0.63c-0.21,0.85-0.34,1.72-0.41,2.61c-0.12,1.77,0.05,3.58,0.59,5.3
		c0.54,1.71,1.43,3.33,2.63,4.67c1.19,1.34,2.71,2.38,4.33,3.01c1.63,0.64,3.35,0.87,5.02,0.78c3.35-0.18,6.47-1.67,9-4.08
		c1.26-1.21,2.34-2.68,3.08-4.34C189.69,308.68,190.07,306.84,190.06,305.01z"/>
	<g>
		<ellipse class="st3" cx="179.71" cy="302.15" rx="13.35" ry="14.95"/>
		<path class="st2" d="M193.2,302.15c-0.01,1.87-0.24,3.74-0.72,5.58c-0.48,1.84-1.24,3.65-2.38,5.28
			c-1.13,1.62-2.65,3.03-4.47,3.97c-1.81,0.94-3.89,1.41-5.92,1.32c-2.04-0.08-4.02-0.74-5.71-1.74c-1.7-1-3.14-2.34-4.34-3.83
			c-1.2-1.49-2.15-3.16-2.83-4.95c-0.68-1.78-1.12-3.68-1.25-5.62c-0.12-1.94,0.05-3.93,0.62-5.84c0.56-1.91,1.52-3.72,2.78-5.3
			c1.26-1.58,2.86-2.94,4.71-3.89c1.84-0.96,3.94-1.47,6.02-1.45c2.09,0.02,4.17,0.56,5.98,1.54c1.82,0.98,3.32,2.42,4.45,4.05
			c1.13,1.63,1.88,3.45,2.37,5.29C192.99,298.41,193.21,300.28,193.2,302.15z M192.92,302.15c-0.01-1.84-0.4-3.67-1.14-5.33
			c-0.74-1.66-1.83-3.13-3.09-4.32c-1.26-1.2-2.71-2.13-4.22-2.79c-1.51-0.66-3.13-1-4.76-0.98c-1.62,0.01-3.22,0.39-4.71,1.07
			c-1.48,0.69-2.83,1.71-3.96,2.95c-1.13,1.25-2.01,2.73-2.68,4.32c-0.09,0.2-0.16,0.4-0.24,0.6c-0.08,0.2-0.15,0.41-0.21,0.61
			c-0.07,0.21-0.14,0.41-0.19,0.62c-0.06,0.21-0.12,0.42-0.17,0.63c-0.21,0.85-0.34,1.72-0.41,2.61c-0.12,1.77,0.05,3.58,0.59,5.3
			c0.54,1.71,1.43,3.33,2.63,4.67c1.19,1.34,2.71,2.38,4.33,3.01c1.63,0.64,3.35,0.87,5.02,0.78c3.35-0.18,6.47-1.67,9-4.08
			c1.26-1.21,2.34-2.68,3.08-4.34C192.54,305.83,192.92,303.99,192.92,302.15z"/>
	</g>
	<path class="st2" d="M178.94,388.04c-0.01,1.87-0.24,3.74-0.72,5.58c-0.48,1.84-1.24,3.65-2.38,5.28
		c-1.13,1.62-2.65,3.03-4.47,3.97c-1.81,0.94-3.89,1.41-5.92,1.32c-2.04-0.08-4.02-0.74-5.71-1.74c-1.7-1-3.14-2.34-4.34-3.83
		c-1.2-1.49-2.15-3.16-2.83-4.95c-0.68-1.78-1.12-3.68-1.25-5.62c-0.12-1.94,0.05-3.93,0.62-5.84c0.56-1.91,1.52-3.72,2.78-5.3
		c1.26-1.58,2.86-2.94,4.71-3.89c1.84-0.96,3.94-1.47,6.02-1.45c2.09,0.02,4.17,0.56,5.98,1.54c1.82,0.98,3.32,2.42,4.45,4.05
		c1.13,1.63,1.88,3.45,2.37,5.29C178.72,384.29,178.94,386.17,178.94,388.04z M178.65,388.04c-0.01-1.84-0.4-3.67-1.14-5.33
		c-0.74-1.66-1.83-3.13-3.09-4.32c-1.26-1.2-2.71-2.13-4.22-2.79c-1.51-0.66-3.13-1-4.76-0.98c-1.62,0.01-3.22,0.39-4.71,1.07
		c-1.48,0.69-2.83,1.71-3.96,2.95c-1.13,1.25-2.01,2.73-2.68,4.32c-0.09,0.2-0.16,0.4-0.24,0.6c-0.08,0.2-0.15,0.41-0.21,0.61
		c-0.07,0.21-0.14,0.41-0.19,0.62c-0.06,0.21-0.12,0.42-0.17,0.63c-0.21,0.85-0.34,1.72-0.41,2.61c-0.12,1.77,0.05,3.58,0.59,5.3
		c0.54,1.71,1.43,3.33,2.63,4.67c1.19,1.34,2.71,2.38,4.33,3.01c1.63,0.64,3.35,0.87,5.02,0.78c3.35-0.18,6.47-1.67,9-4.08
		c1.26-1.21,2.34-2.68,3.08-4.34C178.27,391.71,178.66,389.88,178.65,388.04z"/>
</g>
</svg>
