<?xml version="1.0" encoding="utf-8"?>
<!-- Generator: Adobe Illustrator 24.0.2, SVG Export Plug-In . SVG Version: 6.00 Build 0)  -->
<svg version="1.1" id="Calque_1" xmlns="http://www.w3.org/2000/svg" xmlns:xlink="http://www.w3.org/1999/xlink" x="0px" y="0px"
	 viewBox="0 0 687 144" style="enable-background:new 0 0 687 144;" xml:space="preserve">
<style type="text/css">
	.st0{fill:#1D71B8;}
</style>
<g id="XMLID_2_">
	<g id="XMLID_1_">
		<path id="XMLID_10_" class="st0" d="M108,62.8c-0.7-0.8-1.5-1.5-2.3-2.1c-2.3-1.7-5.1-2.6-8.2-2.6l0,0H83.4h-1.7H40.7
			c-0.1,0-0.2,0-0.3,0H28c-2.1,0-3.8-1.7-3.8-3.8c0-2.1,1.7-3.8,3.8-3.8h6.8h5.6h15l0,0c0-10.8-8.3-19.7-18.9-20.5
			c-0.5,0-1.1-0.1-1.7-0.1l0,0H20.7l0,0c-2.7,0-5.1,0.7-7.2,2c-1.2,0.7-2.3,1.6-3.3,2.7C8,37.1,6.6,40.4,6.6,44v28.2
			c0,3.6,1.4,6.9,3.6,9.4c0.9,1.1,2,2,3.3,2.7c2.1,1.3,4.6,2,7.2,2l0,0h14.1h1.7h39.9c0.3-0.1,0.5-0.1,0.8-0.1h12.4
			c2.1,0,3.8,1.7,3.8,3.8v0.1c0,2.1-1.7,3.8-3.8,3.8h-6.2h-6.2H62.5c0,10.9,8.5,19.9,19.3,20.5c0.4,0,0.9,0,1.3,0h0.4h14.1h0
			c2.5,0,4.8-0.7,6.9-1.8c1.4-0.8,2.6-1.8,3.6-2.9c2.2-2.5,3.6-5.8,3.6-9.4V72.2C111.6,68.6,110.3,65.3,108,62.8z"/>
		<path id="XMLID_36_" class="st0" d="M100.3,55.5c2.5,0.4,4.9,1.4,7,2.9c0.2,0.2,0.4,0.3,0.7,0.5V19.6c0-7.3-5.9-13.1-13.1-13.1h0
			c-7.3,0-13.1,5.9-13.1,13.1v35.6h18.6V55.5z"/>
		<path id="XMLID_35_" class="st0" d="M97.5,117.3H83c-0.4,0-0.9,0-1.3,0v7.5c0,7.3,5.9,13.1,13.1,13.1h0c7.3,0,13.1-5.9,13.1-13.1
			v-11.1c-0.7,0.6-1.5,1.1-2.3,1.5C103.3,116.5,100.4,117.3,97.5,117.3z"/>
		<path id="XMLID_30_" class="st0" d="M12,86.7c-0.6-0.4-1.2-0.8-1.8-1.3v39.3c0,7.3,5.9,13.1,13.1,13.1s13.1-5.9,13.1-13.1V89.1
			H20.7C17.7,89.1,14.7,88.2,12,86.7z"/>
		<path id="XMLID_29_" class="st0" d="M20.7,27h14.1c0.6,0,1.1,0,1.7,0.1v-7.5c0-7.3-5.9-13.1-13.1-13.1s-13.1,5.9-13.1,13.1v11.1
			c0.6-0.5,1.2-0.9,1.8-1.3C14.7,27.9,17.7,27,20.7,27z"/>
		<path id="XMLID_28_" class="st0" d="M101.3,109.9c-1.9,1.1-4.1,1.7-6.4,1.7h0H81.8v0c0.4,0,0.9,0.1,1.3,0.1h14.5
			c1.9,0,3.8-0.5,5.5-1.4c2.3-1.3,4.1-3.4,5-5.8v-6C108,103.4,105.3,107.7,101.3,109.9z"/>
		<path id="XMLID_27_" class="st0" d="M16.6,34.6c2-1.2,4.3-1.9,6.7-1.9l0,0h13.1l0,0v0c-0.5-0.1-1.1-0.1-1.7-0.1H20.7
			c-2,0-4,0.6-5.8,1.6c-2.2,1.3-3.8,3.3-4.7,5.5v6.1C10.2,41.1,12.8,36.9,16.6,34.6z"/>
	</g>
	<g id="XMLID_267_">
		<g id="XMLID_443_">
			<path id="XMLID_449_" class="st0" d="M134.8,101.2c-8.1-8.2-12.1-18.1-12.1-29.5c0-11.5,4-21.3,12.1-29.5
				c8.1-8.2,17.9-12.3,29.5-12.3c11.6,0,21.4,4.2,29.5,12.5c8.1,8.3,12.1,18.2,12.1,29.5c0,11.3-4.1,21.1-12.3,29.3
				c-3.7,3.9-8,6.9-13.1,9.1c-5.1,2.2-10.4,3.3-15.9,3.3C152.8,113.5,142.9,109.4,134.8,101.2z M136.6,71.7c0,7.8,2.7,14.6,8.2,20.2
				c5.4,5.6,12,8.4,19.7,8.4c7.7,0,14.2-2.8,19.6-8.5c5.4-5.7,8.1-12.4,8.1-20.1s-2.7-14.4-8-20.1c-5.4-5.7-11.9-8.5-19.7-8.5
				c-7.7,0-14.3,2.8-19.7,8.4C139.3,57.1,136.6,63.8,136.6,71.7z"/>
			<path id="XMLID_444_" class="st0" d="M164.6,115.7c-12.3,0-22.8-4.4-31.3-13c-8.4-8.6-12.7-19-12.7-31.1c0-12,4.3-22.5,12.7-31.1
				c8.5-8.6,18.9-13,31.1-13c12.2,0,22.6,4.4,31.1,13.2c8.4,8.7,12.7,19.1,12.7,31c0,11.9-4.3,22.2-12.9,30.8
				c-3.8,4-8.5,7.3-13.8,9.6C176,114.5,170.3,115.7,164.6,115.7z M164.3,31.9c-10.9,0-20.4,3.9-28,11.7c-7.6,7.8-11.5,17.2-11.5,28
				c0,10.8,3.9,20.3,11.5,28l0,0c7.6,7.8,17.1,11.7,28.2,11.7c5.2,0,10.3-1.1,15.1-3.1c4.8-2.1,9-5,12.4-8.6
				c7.8-7.8,11.7-17.2,11.7-27.8c0-10.7-3.9-20.1-11.5-28C184.7,35.9,175.3,31.9,164.3,31.9z M164.4,102.4c-8.2,0-15.4-3.1-21.2-9.1
				c-5.8-6-8.8-13.3-8.8-21.7c0-8.4,2.9-15.7,8.7-21.7c5.8-6,12.9-9.1,21.3-9.1c8.3,0,15.5,3.1,21.2,9.2c5.7,6.1,8.6,13.3,8.6,21.5
				c0,8.2-2.9,15.5-8.7,21.5C179.7,99.3,172.6,102.4,164.4,102.4z M164.4,45.2c-7.2,0-13.1,2.5-18.2,7.8c-5,5.3-7.5,11.4-7.5,18.7
				c0,7.3,2.5,13.4,7.5,18.7c5.1,5.2,11,7.8,18.1,7.8c7.1,0,13-2.6,18-7.9c5-5.3,7.5-11.4,7.5-18.6c0-7.2-2.4-13.3-7.4-18.6
				C177.5,47.8,171.6,45.2,164.4,45.2z"/>
		</g>
		<g id="XMLID_437_">
			<path id="XMLID_441_" class="st0" d="M271.5,88.8c0-5.9-7.1-10.1-21.4-12.7h-0.2c-6.3-1.2-11.8-2.8-16.4-4.9
				c-4.6-2.1-8-4.8-10.2-8.1c-2.2-3.3-3.2-6.7-3.2-10.2c0-6.7,3.1-12.3,9.3-16.6c6.2-4.3,13.4-6.5,21.5-6.5c3.6,0,7.2,0.6,11,1.7
				c3.7,1.2,6.5,2.2,8.3,3.3c1.8,1,4.2,2.4,7.2,4.3c1.4,0.9,2.3,2.2,2.6,3.8c0.4,1.6,0.1,3.1-0.9,4.5c-0.9,1.4-2.3,2.2-4,2.6
				c-1.7,0.3-3.3,0.1-4.7-0.9c-3.8-2.5-7.2-4.3-10.2-5.6c-3-1.2-6.1-1.9-9.4-1.9c-5.4,0-9.7,1.2-13.1,3.6c-3.4,2.4-5.1,5-5.1,7.7
				c0,1.3,0.3,2.4,1,3.4c2.3,3.6,8.4,6.2,18.4,8h0.2c6.8,1.3,12.4,2.9,16.8,4.9c10.1,4.7,15.1,11.2,15.1,19.5
				c0,7.2-3.3,13.1-10,17.7c-6.7,4.6-14.3,6.9-23,6.9c-10.6-0.1-21-4-31.2-11.6c-1.3-1-2-2.4-2.3-4.1c-0.2-1.7,0.2-3.2,1.3-4.4
				c1.1-1.2,2.5-2,4.3-2.2c1.8-0.2,3.3,0.3,4.6,1.3c7.8,6,15.5,9,23.2,9c6.1,0,11-1.3,14.8-4C269.7,94.8,271.5,91.9,271.5,88.8z"/>
			<path id="XMLID_438_" class="st0" d="M251.1,115.6c-11.1-0.1-22-4.1-32.5-12.1c-1.8-1.4-2.8-3.2-3.1-5.5
				c-0.3-2.3,0.3-4.4,1.8-6.1c1.4-1.7,3.3-2.6,5.7-2.9c2.4-0.3,4.5,0.4,6.2,1.8c7.3,5.7,14.6,8.5,21.8,8.5c5.6,0,10.2-1.2,13.6-3.6
				c3.2-2.2,4.8-4.6,4.8-6.9c0-5.8-10.5-8.9-19.5-10.5l-0.4,0c-6.5-1.2-12.2-2.9-16.9-5c-5-2.3-8.7-5.2-11.1-8.9
				c-2.4-3.6-3.6-7.5-3.6-11.4c0-7.5,3.4-13.6,10.2-18.4c6.5-4.6,14.2-6.9,22.7-6.9c3.8,0,7.7,0.6,11.6,1.8c3.9,1.2,6.8,2.3,8.7,3.4
				c1.9,1,4.3,2.5,7.3,4.4c1.9,1.3,3.1,3,3.6,5.2c0.5,2.2,0.1,4.3-1.2,6.2c-1.3,1.8-3,3-5.3,3.4c-2.3,0.5-4.4,0.1-6.3-1.2
				c-3.7-2.4-7-4.2-9.8-5.4c-2.7-1.1-5.6-1.7-8.6-1.7c-4.9,0-8.9,1.1-11.9,3.2c-2.8,2-4.2,4-4.2,5.9c0,0.9,0.2,1.6,0.6,2.1
				c1.4,2.1,5.3,5,16.8,7.1l0.5,0c6.9,1.3,12.8,3,17.3,5c10.9,5.1,16.4,12.3,16.4,21.5c0,7.9-3.7,14.5-10.9,19.5
				C268.3,113.1,260.2,115.6,251.1,115.6z M224,93.3c-0.2,0-0.4,0-0.6,0c-1.2,0.1-2.2,0.6-2.8,1.4c-0.7,0.8-0.9,1.7-0.8,2.8
				c0.1,1.1,0.6,2,1.4,2.6c9.7,7.3,19.8,11.1,29.9,11.2c8.2,0,15.5-2.2,21.8-6.5c6.1-4.2,9.1-9.4,9.1-16c0-7.5-4.5-13.2-13.9-17.6
				c-4.1-1.8-9.6-3.4-16.1-4.7l-0.4,0c-10.7-1.9-17.2-4.9-19.8-9c-0.9-1.2-1.3-2.8-1.3-4.5c0-3.4,2-6.6,6-9.4c3.8-2.7,8.6-4,14.4-4
				c3.6,0,7,0.7,10.3,2c3.1,1.3,6.6,3.2,10.5,5.8c1,0.6,2,0.8,3.1,0.6c1.2-0.2,2-0.8,2.6-1.7c0.6-0.9,0.8-1.7,0.5-2.8
				c-0.2-1.1-0.8-1.9-1.7-2.5c-2.9-1.8-5.3-3.2-7.1-4.2c-1.7-0.9-4.4-2-7.9-3.1c-3.5-1.1-7-1.6-10.3-1.6c-7.6,0-14.4,2.1-20.2,6.1
				c-5.6,4-8.4,8.8-8.4,14.9c0,3,1,6.1,2.9,9c1.9,2.9,5,5.4,9.2,7.3c4.4,2,9.7,3.6,15.7,4.7l0.4,0c15.6,2.8,23.2,7.6,23.2,14.8
				c0,3.8-2.2,7.3-6.6,10.4c-4.2,3-9.8,4.4-16.3,4.4c-8,0-16.2-3.2-24.3-9.4C225.8,93.5,225,93.3,224,93.3z"/>
		</g>
		<g id="XMLID_428_">
			<path id="XMLID_434_" class="st0" d="M341.5,39.4c5.1,4.9,7.7,10.8,7.7,17.6c0,6.9-2.6,12.7-7.7,17.6c-5.1,4.8-11.3,7.3-18.5,7.3
				h-15v25.2c0,1.8-0.7,3.3-2,4.5c-1.3,1.2-2.9,1.9-4.8,1.9c-1.9,0-3.4-0.6-4.7-1.9c-1.3-1.2-1.9-2.8-1.9-4.5V38.5
				c0-1.8,0.6-3.3,1.9-4.5c1.3-1.2,2.9-1.9,4.7-1.9H323C330.2,32.1,336.4,34.6,341.5,39.4z M308.1,45v24h15c3.5,0,6.4-1.2,8.9-3.5
				c2.4-2.3,3.7-5.1,3.8-8.4c-0.1-3.4-1.3-6.3-3.8-8.6c-2.4-2.3-5.4-3.5-8.9-3.5H308.1z"/>
			<path id="XMLID_429_" class="st0" d="M301.2,115.7c-2.4,0-4.5-0.8-6.2-2.5c-1.7-1.7-2.6-3.7-2.6-6.1V38.5c0-2.4,0.9-4.4,2.6-6.1
				c1.7-1.6,3.8-2.5,6.2-2.5H323c7.8,0,14.5,2.7,20,7.9h0c5.5,5.3,8.3,11.7,8.3,19.2c0,7.4-2.8,13.9-8.3,19.1
				c-5.5,5.2-12.2,7.9-20,7.9h-12.8v23.1c0,2.4-0.9,4.5-2.7,6.1C305.8,114.9,303.7,115.7,301.2,115.7z M301.2,34.3
				c-1.3,0-2.4,0.4-3.3,1.3c-0.9,0.8-1.3,1.8-1.3,3v68.6c0,1.2,0.4,2.1,1.3,3c0.9,0.9,1.9,1.3,3.3,1.3c1.3,0,2.4-0.4,3.3-1.3
				c0.9-0.8,1.3-1.8,1.3-3V79.7H323c6.7,0,12.3-2.2,17-6.7c4.7-4.5,7-9.7,7-16c0-6.3-2.3-11.6-7-16.1h0c-4.7-4.5-10.3-6.7-17-6.7
				H301.2z M323,71.1h-17.1V42.9H323c4,0,7.5,1.4,10.4,4.1c2.8,2.7,4.3,6.1,4.4,10.1c-0.1,3.9-1.6,7.3-4.4,10
				C330.6,69.8,327.1,71.1,323,71.1z M310.2,66.8H323c2.9,0,5.4-0.9,7.4-2.9c2-1.9,3-4.2,3.1-6.9c-0.1-2.7-1.1-5.1-3.1-7
				c-2-1.9-4.5-2.9-7.4-2.9h-12.8V66.8z"/>
		</g>
		<g id="XMLID_422_">
			<path id="XMLID_426_" class="st0" d="M358.1,38.5c0-1.8,0.6-3.3,1.9-4.5c1.3-1.2,2.9-1.9,4.7-1.9c1.9,0,3.5,0.6,4.8,1.9
				c1.3,1.2,2,2.8,2,4.5v68.6c0,1.8-0.7,3.3-2,4.5c-1.3,1.2-2.9,1.9-4.8,1.9c-1.9,0-3.4-0.6-4.7-1.9c-1.3-1.2-1.9-2.8-1.9-4.5V38.5z
				"/>
			<path id="XMLID_423_" class="st0" d="M364.8,115.7c-2.4,0-4.5-0.8-6.2-2.5c-1.7-1.7-2.6-3.7-2.6-6.1V38.5c0-2.4,0.9-4.4,2.6-6.1
				c1.7-1.6,3.8-2.5,6.2-2.5c2.4,0,4.5,0.8,6.3,2.4c1.8,1.7,2.7,3.7,2.7,6.1v68.6c0,2.4-0.9,4.5-2.7,6.1
				C369.3,114.9,367.2,115.7,364.8,115.7z M364.8,34.3c-1.3,0-2.4,0.4-3.3,1.3c-0.9,0.8-1.3,1.8-1.3,3v68.6c0,1.2,0.4,2.1,1.3,3
				c0.9,0.9,1.9,1.3,3.3,1.3c1.3,0,2.4-0.4,3.3-1.3c0.9-0.8,1.3-1.8,1.3-3V38.5c0-1.2-0.4-2.1-1.3-3
				C367.2,34.7,366.1,34.3,364.8,34.3z"/>
		</g>
		<g id="XMLID_416_">
			<path id="XMLID_420_" class="st0" d="M436,88.8c0-5.9-7.1-10.1-21.4-12.7h-0.2c-6.3-1.2-11.8-2.8-16.4-4.9
				c-4.6-2.1-8-4.8-10.2-8.1c-2.2-3.3-3.2-6.7-3.2-10.2c0-6.7,3.1-12.3,9.3-16.6c6.2-4.3,13.4-6.5,21.5-6.5c3.6,0,7.2,0.6,11,1.7
				c3.7,1.2,6.5,2.2,8.3,3.3c1.8,1,4.2,2.4,7.2,4.3c1.4,0.9,2.3,2.2,2.6,3.8c0.4,1.6,0.1,3.1-0.9,4.5c-0.9,1.4-2.3,2.2-4,2.6
				c-1.7,0.3-3.3,0.1-4.7-0.9c-3.8-2.5-7.2-4.3-10.2-5.6c-3-1.2-6.1-1.9-9.4-1.9c-5.4,0-9.7,1.2-13.1,3.6c-3.4,2.4-5.1,5-5.1,7.7
				c0,1.3,0.3,2.4,1,3.4c2.3,3.6,8.4,6.2,18.4,8h0.2c6.8,1.3,12.4,2.9,16.8,4.9c10.1,4.7,15.1,11.2,15.1,19.5
				c0,7.2-3.3,13.1-10,17.7c-6.7,4.6-14.3,6.9-23,6.9c-10.6-0.1-21-4-31.2-11.6c-1.3-1-2-2.4-2.3-4.1c-0.2-1.7,0.2-3.2,1.3-4.4
				c1.1-1.2,2.5-2,4.3-2.2c1.8-0.2,3.3,0.3,4.6,1.3c7.8,6,15.5,9,23.2,9c6.1,0,11-1.3,14.8-4C434.1,94.8,436,91.9,436,88.8z"/>
			<path id="XMLID_417_" class="st0" d="M415.5,115.6c-11.1-0.1-22-4.1-32.5-12.1c-1.8-1.4-2.8-3.2-3.1-5.5
				c-0.3-2.3,0.3-4.4,1.8-6.1c1.4-1.7,3.3-2.6,5.7-2.9c2.4-0.3,4.5,0.4,6.2,1.8c7.3,5.7,14.6,8.5,21.8,8.5c5.6,0,10.2-1.2,13.6-3.6
				c3.2-2.2,4.8-4.6,4.8-6.9c0-5.8-10.5-8.9-19.5-10.5l-0.4,0c-6.5-1.2-12.2-2.9-16.9-5c-5-2.3-8.7-5.2-11.1-8.9
				c-2.4-3.6-3.6-7.5-3.6-11.4c0-7.5,3.4-13.6,10.2-18.4c6.5-4.6,14.2-6.9,22.7-6.9c3.8,0,7.7,0.6,11.6,1.8c3.9,1.2,6.8,2.3,8.7,3.4
				c1.9,1,4.3,2.5,7.3,4.4c1.9,1.3,3.1,3,3.6,5.2c0.5,2.2,0.1,4.3-1.2,6.2c-1.3,1.8-3,3-5.3,3.4c-2.3,0.5-4.4,0.1-6.3-1.2
				c-3.7-2.4-7-4.2-9.8-5.4c-2.7-1.1-5.6-1.7-8.6-1.7c-4.9,0-8.9,1.1-11.9,3.2c-2.8,2-4.2,4-4.2,5.9c0,0.9,0.2,1.6,0.6,2.1
				c1.4,2.1,5.3,5,16.8,7.1l0.5,0c6.9,1.3,12.8,3,17.3,5c10.9,5.1,16.4,12.3,16.4,21.5c0,7.9-3.7,14.5-10.9,19.5
				C432.8,113.1,424.6,115.6,415.5,115.6z M388.4,93.3c-0.2,0-0.4,0-0.6,0c-1.2,0.1-2.2,0.6-2.9,1.4c-0.7,0.8-0.9,1.7-0.8,2.8
				c0.1,1.1,0.6,2,1.4,2.6c9.7,7.3,19.7,11.1,29.9,11.2c8.2,0,15.5-2.2,21.8-6.5c6.1-4.2,9.1-9.4,9.1-16c0-7.5-4.5-13.2-13.9-17.6
				c-4.1-1.8-9.5-3.4-16.1-4.7l-0.4,0c-10.7-1.9-17.2-4.9-19.8-9c-0.9-1.2-1.3-2.8-1.3-4.5c0-3.4,2-6.6,6-9.4c3.8-2.7,8.6-4,14.4-4
				c3.6,0,7,0.7,10.3,2c3.1,1.3,6.6,3.2,10.5,5.8c1,0.6,2,0.8,3.1,0.6c1.2-0.2,2-0.8,2.6-1.7c0.6-0.9,0.8-1.7,0.5-2.8
				c-0.2-1.1-0.8-1.9-1.7-2.5c-2.9-1.8-5.3-3.2-7.1-4.2c-1.7-0.9-4.4-2-7.9-3.1c-3.5-1.1-7-1.6-10.3-1.6c-7.6,0-14.4,2.1-20.2,6.1
				c-5.6,4-8.4,8.8-8.4,14.9c0,3,1,6.1,2.9,9c1.9,2.9,5,5.4,9.2,7.3c4.4,2,9.7,3.6,15.7,4.7l0.4,0c15.6,2.8,23.2,7.6,23.2,14.8
				c0,3.8-2.2,7.3-6.6,10.4c-4.2,3-9.7,4.4-16.3,4.4c-8,0-16.2-3.2-24.3-9.4C390.2,93.5,389.4,93.3,388.4,93.3z"/>
		</g>
		<g id="XMLID_407_">
			<path id="XMLID_413_" class="st0" d="M467.3,101.2c-8.1-8.2-12.1-18.1-12.1-29.5c0-11.5,4-21.3,12.1-29.5
				c8.1-8.2,17.9-12.3,29.5-12.3c11.6,0,21.4,4.2,29.5,12.5c8.1,8.3,12.1,18.2,12.1,29.5c0,11.3-4.1,21.1-12.3,29.3
				c-3.7,3.9-8,6.9-13.1,9.1c-5.1,2.2-10.4,3.3-15.9,3.3C485.3,113.5,475.4,109.4,467.3,101.2z M469.1,71.7c0,7.8,2.7,14.6,8.2,20.2
				c5.4,5.6,12,8.4,19.7,8.4c7.7,0,14.2-2.8,19.6-8.5c5.4-5.7,8.1-12.4,8.1-20.1s-2.7-14.4-8-20.1c-5.4-5.7-11.9-8.5-19.7-8.5
				c-7.8,0-14.3,2.8-19.7,8.4C471.8,57.1,469.1,63.8,469.1,71.7z"/>
			<path id="XMLID_408_" class="st0" d="M497.1,115.7c-12.3,0-22.8-4.4-31.3-13h0c-8.4-8.6-12.7-19-12.7-31.1
				c0-12,4.3-22.5,12.7-31.1c8.5-8.6,18.9-13,31.1-13c12.2,0,22.6,4.4,31.1,13.2c8.4,8.7,12.7,19.1,12.7,31
				c0,11.9-4.3,22.2-12.9,30.8c-3.8,4-8.5,7.3-13.8,9.6C508.5,114.5,502.9,115.7,497.1,115.7z M496.8,31.9c-10.9,0-20.4,3.9-28,11.7
				c-7.6,7.8-11.5,17.2-11.5,28c0,10.8,3.9,20.3,11.5,28h0c7.6,7.8,17.1,11.7,28.2,11.7c5.2,0,10.3-1.1,15.1-3.1
				c4.8-2.1,9-5,12.4-8.6c7.8-7.8,11.7-17.2,11.7-27.8c0-10.7-3.9-20.1-11.5-28C517.2,35.9,507.8,31.9,496.8,31.9z M496.9,102.4
				c-8.2,0-15.4-3.1-21.2-9.1c-5.8-6-8.8-13.3-8.8-21.7c0-8.4,2.9-15.7,8.7-21.7c5.8-6,13-9.1,21.3-9.1c8.3,0,15.5,3.1,21.2,9.2
				c5.7,6.1,8.6,13.3,8.6,21.5c0,8.2-2.9,15.5-8.7,21.5C512.3,99.3,505.1,102.4,496.9,102.4z M496.9,45.2c-7.2,0-13.1,2.5-18.2,7.8
				c-5,5.3-7.5,11.4-7.5,18.7c0,7.3,2.5,13.4,7.5,18.7c5.1,5.2,11,7.8,18.1,7.8c7.1,0,13-2.6,18-7.9c5-5.3,7.5-11.4,7.5-18.6
				c0-7.2-2.4-13.3-7.4-18.6C510,47.8,504.1,45.2,496.9,45.2z"/>
		</g>
		<g id="XMLID_401_">
			<path id="XMLID_405_" class="st0" d="M565.7,111.7c-1.3,1.2-2.9,1.9-4.8,1.9c-1.9,0-3.4-0.6-4.7-1.9c-1.3-1.2-1.9-2.8-1.9-4.5
				V38.5c0-1.8,0.6-3.3,1.9-4.5c1.3-1.2,2.9-1.9,4.7-1.9h39.8c1.8,0,3.3,0.6,4.7,1.9c1.3,1.3,2,2.8,2,4.5c0,1.7-0.7,3.3-2,4.5
				c-1.3,1.3-2.9,1.9-4.7,1.9h-33v21.3H596c1.8,0,3.3,0.6,4.7,1.9c1.3,1.3,2,2.8,2,4.5c0,1.7-0.6,3.3-1.9,4.5
				c-1.3,1.3-2.9,1.9-4.7,1.9h-28.4v27.9C567.7,108.9,567,110.4,565.7,111.7z"/>
			<path id="XMLID_402_" class="st0" d="M560.8,115.7c-2.4,0-4.5-0.8-6.2-2.5c-1.7-1.7-2.6-3.7-2.6-6.1V38.5c0-2.4,0.9-4.4,2.6-6.1
				c1.7-1.6,3.8-2.5,6.2-2.5h39.8c2.3,0,4.4,0.8,6.2,2.5c1.8,1.7,2.7,3.7,2.7,6.1c0,2.3-0.9,4.4-2.7,6.1c-1.7,1.7-3.8,2.5-6.2,2.5
				h-30.8v17H596c2.3,0,4.4,0.8,6.2,2.5c1.8,1.7,2.7,3.7,2.7,6.1c0,2.3-0.9,4.4-2.6,6.1c-1.7,1.7-3.8,2.5-6.3,2.5h-26.2v25.8
				c0,2.4-0.9,4.5-2.7,6.1l0,0C565.4,114.9,563.3,115.7,560.8,115.7z M560.8,34.3c-1.3,0-2.4,0.4-3.3,1.3c-0.9,0.8-1.3,1.8-1.3,3
				v68.6c0,1.2,0.4,2.1,1.3,3c0.9,0.9,1.9,1.3,3.3,1.3c1.3,0,2.4-0.4,3.3-1.3v0c0.9-0.8,1.3-1.8,1.3-3V77.1H596
				c1.3,0,2.3-0.4,3.2-1.3c0.9-0.9,1.3-1.8,1.3-3c0-1.2-0.4-2.1-1.3-3c-0.9-0.9-2-1.3-3.2-1.3h-30.5V42.9h35.1
				c1.2,0,2.3-0.4,3.2-1.3c0.9-0.9,1.3-1.8,1.3-3c0-1.2-0.4-2.1-1.3-3c-0.9-0.9-2-1.3-3.2-1.3H560.8z"/>
		</g>
		<g id="XMLID_395_">
			<path id="XMLID_399_" class="st0" d="M676.3,34c1.3,1.2,1.9,2.8,1.9,4.5c0,1.8-0.7,3.3-2,4.6c-1.3,1.3-2.9,1.9-4.7,1.9h-19.4
				v62.1c0,1.8-0.7,3.3-1.9,4.5c-1.3,1.2-2.9,1.9-4.7,1.9c-1.9,0-3.4-0.6-4.7-1.9c-1.3-1.2-1.9-2.8-1.9-4.5V45h-19.2
				c-1.9,0-3.4-0.6-4.7-1.9c-1.3-1.3-1.9-2.8-1.9-4.6c0-1.8,0.6-3.3,1.9-4.5c1.3-1.2,2.9-1.9,4.7-1.9h52
				C673.5,32.1,675,32.7,676.3,34z"/>
			<path id="XMLID_396_" class="st0" d="M645.6,115.7c-2.4,0-4.5-0.8-6.2-2.5c-1.7-1.7-2.6-3.7-2.6-6.1v-60h-17.1
				c-2.4,0-4.5-0.9-6.3-2.5c-1.7-1.7-2.6-3.8-2.6-6.1c0-2.4,0.9-4.4,2.6-6.1c1.7-1.6,3.8-2.5,6.2-2.5h52c2.4,0,4.5,0.8,6.2,2.5l0,0
				c1.7,1.7,2.6,3.7,2.6,6.1c0,2.4-0.9,4.5-2.7,6.2c-1.7,1.7-3.8,2.5-6.2,2.5h-17.2v60c0,2.4-0.9,4.4-2.6,6.1
				C650.1,114.9,648,115.7,645.6,115.7z M619.6,34.3c-1.3,0-2.4,0.4-3.3,1.3c-0.9,0.8-1.3,1.8-1.3,3c0,1.2,0.4,2.2,1.3,3.1
				c0.9,0.9,1.9,1.3,3.2,1.3H641v64.3c0,1.2,0.4,2.1,1.3,3c0.9,0.9,1.9,1.3,3.3,1.3c1.3,0,2.4-0.4,3.3-1.3c0.9-0.8,1.3-1.8,1.3-3
				V42.9h21.5c1.2,0,2.3-0.4,3.2-1.3c0.9-0.9,1.3-1.8,1.3-3c0-1.2-0.4-2.1-1.3-3c-0.9-0.9-1.9-1.3-3.3-1.3H619.6z"/>
		</g>
	</g>
</g>
</svg>
