<?xml version="1.0" encoding="utf-8"?>
<!-- Generator: Adobe Illustrator 24.0.2, SVG Export Plug-In . SVG Version: 6.00 Build 0)  -->
<svg version="1.1" id="Layer_1" xmlns="http://www.w3.org/2000/svg" xmlns:xlink="http://www.w3.org/1999/xlink" x="0px" y="0px"
	 viewBox="0 0 914.1 114.12" style="enable-background:new 0 0 914.1 114.12;" xml:space="preserve">
<style type="text/css">
	.st0{fill:#05204A;}
	.st1{fill:url(#SVGID_1_);}
</style>
<g>
	<g>
		<path class="st0" d="M113.31,48.52v42.36H95.64V51.85c0-6.67-3.16-10-9.13-10c-4.21,0-9.13,3-11.35,6.89v42.13H57.49L57.49,9.01
			h17.68V34.4h0.47c3.74-3.67,9.83-6.78,17.44-6.78C105.94,27.62,113.31,34.4,113.31,48.52z"/>
		<path class="st0" d="M170.45,85.09c-5.15,4-11.58,7.01-24.22,7.01c-20.83,0-31.48-11.12-31.48-32.8
			c0-20.34,11.94-32.46,31.01-32.46c16.85,0,26.56,10.12,26.56,25.46c0,3.22-0.12,6.34-0.82,11.23h-39.44
			c0.23,9.89,4.92,15.34,16.15,15.34c7.14,0,12.05-3.22,14.51-5.67L170.45,85.09z M132.42,52.41h23.29v-1.67
			c0-7.34-3.28-11.23-10.42-11.23C137.34,39.52,132.66,45.07,132.42,52.41z"/>
		<g>
			<path class="st0" d="M217.72,13.12c18.29,0,28.67,6.61,28.67,23.09c0,13.68-7.79,20.07-17.46,21.86v0.45
				c4.37,2.02,7.08,4.93,10.97,11.55l12.63,21.64h-21.48l-13.69-25.56c-1.53-2.8-3.78-3.7-7.55-3.7h-1.18V91.7h-17.82V13.12H217.72z
				 M208.63,48.88h6.84c9.56,0,12.63-3.92,12.63-11.21c0-7.17-4.48-10.43-12.39-10.43h-7.08V48.88z"/>
		</g>
		<path class="st0" d="M300.13,85.09c-5.15,4-11.58,7.01-24.22,7.01c-20.83,0-31.48-11.12-31.48-32.8
			c0-20.34,11.94-32.46,31.01-32.46c16.85,0,26.56,10.12,26.56,25.46c0,3.22-0.12,6.34-0.82,11.23h-39.44
			c0.23,9.89,4.92,15.34,16.15,15.34c7.14,0,12.05-3.22,14.51-5.67L300.13,85.09z M262.1,52.41h23.29v-1.67
			c0-7.34-3.28-11.23-10.42-11.23C267.01,39.52,262.33,45.07,262.1,52.41z"/>
		<g>
			<g>
				<g>
					<path class="st0" d="M376.04,70.94l-8.56-44.03l-5.23,0l-5.47,22.16c-1.37,5.46,0.07,10.3-0.57,15.67h-0.36
						c-0.27-5.37-1.55-10.39-2.83-15.5l-6.24-22.36h-13.12l-5.7,22.71c-1.18,4.42-2.28,9.61-2.82,15.15h-0.36
						c-0.64-6.06-0.19-10.13-1.38-15.24l-5.47-22.6l-5.43,0l-8.64,44.01h0l-0.28,1.43l-0.68,3.48h0l-4.73,24.23l41.71-29.14h0.24
						l41.84,28.81L376.04,70.94z"/>
				</g>
			</g>
			<g>
				<g>
					
						<linearGradient id="SVGID_1_" gradientUnits="userSpaceOnUse" x1="323.1702" y1="5.1085" x2="359.4046" y2="67.8682" gradientTransform="matrix(1 0 0 1 1 4)">
						<stop  offset="0" style="stop-color:#FBCE74"/>
						<stop  offset="0.155" style="stop-color:#F9CB6E"/>
						<stop  offset="0.3578" style="stop-color:#F2C45E"/>
						<stop  offset="0.5873" style="stop-color:#E7B743"/>
						<stop  offset="0.8344" style="stop-color:#D8A61D"/>
						<stop  offset="1" style="stop-color:#CC9900"/>
					</linearGradient>
					<polygon class="st1" points="376.99,26.91 351.39,23.19 339.95,0 328.5,23.19 302.9,26.91 321.42,44.97 317.05,70.46 
						339.95,58.43 362.84,70.46 358.47,44.97 					"/>
				</g>
			</g>
		</g>
		<path class="st0" d="M430.14,47.74v25.12c0,3.56,1.4,5.11,4.56,5.11h1.87v11.56c-2.81,1.67-5.85,2.11-8.78,2.11
			c-6.32,0-9.95-2.89-11.93-6.78h-0.47c-2.46,3.11-7.37,7.01-16.85,7.01c-12.87,0-19.54-8.34-19.54-17.34
			c0-14.45,13.69-21.12,34.52-20.12v-4.89c0-7.01-4.1-9.12-9.48-9.12c-6.32,0-9.71,3.45-11.35,7.11l-12.52-8.78
			c2.57-3.45,9.13-11.78,23.76-11.78C420.78,26.95,430.14,32.51,430.14,47.74z M413.52,65.75c-11.59-0.78-17.32,1.78-17.32,7.23
			c0,3.56,2.57,6.11,7.14,6.11c4.33,0,8.19-1.89,10.18-4.45V65.75z"/>
		<path class="st0" d="M478.14,43.85c-2.34-0.44-5.27-0.56-7.61-0.56c-5.5,0-11.59,2-15.45,5v42.58h-17.55V28.06h13.81l3.63,9.23
			h0.47c2.69-6.11,8.43-10.56,17.09-10.56c1.87,0,4.09,0.22,5.62,0.56V43.85z"/>
		<path class="st0" d="M515.36,6.61h17.55v84.26H519.1l-2.81-5.11h-0.47c-1.87,1.78-7.26,6.11-16.15,6.11
			c-13.92,0-24.11-8.67-24.11-29.13c0-26.46,14.98-35.02,28.9-35.02c6.2,0,8.78,0.78,10.88,1.33V6.61z M515.83,73.31V43.52
			c-1.64-1.22-5.5-2.22-8.78-2.22c-7.25,0-13.57,3-13.57,20.01c0,12.23,4.68,17.34,11.47,17.34
			C509.86,78.65,513.37,76.53,515.83,73.31z"/>
		<g>
			<path class="st0" d="M21.71,23.88H1.17V9.01h59.12v14.87H39.76v67.85H21.71V23.88z"/>
		</g>
		<g>
			<path class="st0" d="M613.26,59.32c0-19.34,8.54-32.8,30.43-32.8c22.82,0,29.96,12.9,29.96,32.35c0,19.34-8.66,32.8-30.54,32.8
				C620.4,91.67,613.26,78.77,613.26,59.32z M643.69,78.55c9.01,0,11.82-6.22,11.82-19.01c0-13.01-3.39-19.9-12.52-19.9
				c-8.07,0-11.59,6.22-11.59,19.01C631.4,71.65,634.8,78.55,643.69,78.55z"/>
			<g>
				<path class="st0" d="M591.07,68.42c0-13.1-38.11-11.33-38.11-37.4c0-13.69,12.04-24.43,29.15-24.43
					c13.81,0,22.42,6.37,25.13,9.91l-11.21,13.33c-2.01-2.48-6.73-7.67-15.46-7.67c-5.9,0-9.2,3.3-9.2,7.43
					c0,13.33,37.99,11.33,37.99,37.64c0,12.39-10.27,24.43-31.27,24.43c-15.93,0-25.84-7.08-28.67-10.27l10.27-14.87
					c3.54,3.54,10.74,9.91,20.77,9.91C587.65,76.44,591.07,72.79,591.07,68.42z"/>
			</g>
			<path class="st0" d="M705.6,26.41c10.65,0,18.37,3.45,22.82,9.12L716.6,46.2c-0.94-1.56-4.33-6-11-6
				c-7.61,0-12.52,4.45-12.52,18.12c0,13.34,4.1,19.57,12.4,19.57c5.85,0,9.6-3.34,11.23-6.11l11.23,9.9
				c-3.74,4.78-10.06,10-24.11,10c-17.9,0-28.79-9.34-28.79-32.02C675.06,37.52,687.7,26.41,705.6,26.41z"/>
			<path class="st0" d="M739.08,1.29c5.97,0,10.42,4.22,10.42,10c0,5.22-4.45,9.45-10.42,9.45c-5.62,0-10.06-4.22-10.06-9.45
				C729.01,5.51,733.46,1.29,739.08,1.29z M730.53,27.63h17.67v62.81h-17.67V27.63z"/>
			<path class="st0" d="M807.67,84.66c-5.15,4-11.58,7.01-24.22,7.01c-20.83,0-31.48-11.12-31.48-32.8
				c0-20.34,11.94-32.46,31.01-32.46c16.85,0,26.56,10.12,26.56,25.46c0,3.22-0.12,6.34-0.82,11.23h-39.44
				c0.23,9.89,4.92,15.34,16.15,15.34c7.14,0,12.05-3.22,14.51-5.67L807.67,84.66z M769.64,51.98h23.29v-1.67
				c0-7.34-3.28-11.23-10.42-11.23C774.56,39.08,769.88,44.64,769.64,51.98z"/>
			<path class="st0" d="M816.22,70.32v-29.9h-8.43V29.97l8.54-3.34l6.08-14.79h11.23v15.78h16.5v12.79h-16.5v30.35
				c0,4.34,2.58,6.56,6.9,6.56c2.81,0,6.44-0.89,9.01-2.78l4.56,12.56c-2.22,1.56-7.37,3.89-18.37,3.89
				C824.42,91,816.22,85.55,816.22,70.32z"/>
			<path class="st0" d="M857.28,98.45c1.76,0.89,4.21,1.56,7.14,1.56c6.32,0,10.06-3.45,10.65-9.78l-24.81-62.59h19.78l7.37,21.35
				c2.46,7.11,5.03,16.56,5.85,21.9h0.47c0.94-5.67,2.46-13.45,4.92-21.9l6.2-21.35h18.26l-22.24,65.92
				c-3.74,11.01-10.3,20.57-25.75,20.57c-4.68,0-9.13-1.11-10.77-1.89L857.28,98.45z"/>
		</g>
	</g>
</g>
</svg>
